<svg xmlns="http://www.w3.org/2000/svg" xmlns:xlink="http://www.w3.org/1999/xlink" viewBox="0 0 816.6 713.58"><defs><style>.cls-1{fill:none;}.cls-15,.cls-2{fill:#23bec4;}.cls-2{opacity:0.3;}.cls-3{clip-path:url(#clip-path);}.cls-4{fill:#f29c94;}.cls-10,.cls-11,.cls-12,.cls-13,.cls-14,.cls-15,.cls-16,.cls-17,.cls-20,.cls-4,.cls-5,.cls-6,.cls-7,.cls-8,.cls-9{fill-rule:evenodd;}.cls-5{fill:#f9c013;}.cls-6{fill:#afabba;}.cls-7{fill:#ec7c67;}.cls-8{fill:#fab187;}.cls-9{fill:#111125;}.cls-10{fill:#e38b6d;}.cls-11{fill:url(#linear-gradient);}.cls-12{fill:#263238;}.cls-13{fill:#0b5657;}.cls-14,.cls-16{fill:#fff;}.cls-14{stroke:#1e1f31;stroke-miterlimit:10;stroke-width:0.57px;}.cls-17{fill:#1f223f;}.cls-18,.cls-20{fill:#1e1f31;}.cls-19{fill:#b5c5e5;}</style><clipPath id="clip-path" transform="translate(354.38)"><circle class="cls-1" cx="172.81" cy="172.3" r="172.3"/></clipPath><linearGradient id="linear-gradient" x1="1502.57" y1="550.82" x2="1546.95" y2="550.82" gradientTransform="matrix(-1, 0, 0, 1, 1864.11, 0)" gradientUnits="userSpaceOnUse"><stop offset="0" stop-color="#f9baba"/><stop offset="1" stop-color="#f5928f"/></linearGradient></defs><title>Asset 2</title><g id="Layer_2" data-name="Layer 2"><g id="Layer_1-2" data-name="Layer 1"><circle class="cls-2" cx="526.68" cy="172.3" r="172.3"/><g class="cls-3"><path class="cls-4" d="M-254.3,106.8H158.08a13.76,13.76,0,0,1,13.72,13.71v43.92a13.7,13.7,0,0,1-4,9.69l-.11.1a13.65,13.65,0,0,1-9.58,3.93H-254.3a13.63,13.63,0,0,1-9.68-4h0a13.7,13.7,0,0,1-4-9.68V120.51a13.67,13.67,0,0,1,4-9.68,13.64,13.64,0,0,1,9.69-4Zm412.38,3.76H-254.3a9.93,9.93,0,0,0-7,2.92h0a9.93,9.93,0,0,0-2.92,7v43.92a9.93,9.93,0,0,0,2.92,7h0a9.93,9.93,0,0,0,7,2.92H158.08a10,10,0,0,0,6.95-2.84l.08-.09a9.89,9.89,0,0,0,2.93-7V120.51a10,10,0,0,0-10-10Z" transform="translate(354.38)"/><path class="cls-5" d="M-137.2,133.65l14.69,0a2.15,2.15,0,0,1,2.08,1.51,2.14,2.14,0,0,1-.79,2.44l-11.91,8.62,4.57,14a2.14,2.14,0,0,1-.79,2.44,2.14,2.14,0,0,1-2.57,0l-11.88-8.66-11.87,8.66a2.15,2.15,0,0,1-2.57,0,2.14,2.14,0,0,1-.79-2.44l4.57-14-11.91-8.62a2.16,2.16,0,0,1-.8-2.44,2.17,2.17,0,0,1,2.08-1.51l14.7,0,4.52-14a2.15,2.15,0,0,1,2.07-1.51,2.15,2.15,0,0,1,2.08,1.51Z" transform="translate(354.38)"/><path class="cls-5" d="M-73.41,133.65l14.69,0a2.15,2.15,0,0,1,2.08,1.51,2.14,2.14,0,0,1-.79,2.44l-11.91,8.62,4.57,14a2.14,2.14,0,0,1-.79,2.44,2.15,2.15,0,0,1-2.57,0L-80,153.94l-11.87,8.66a2.15,2.15,0,0,1-2.57,0,2.14,2.14,0,0,1-.79-2.44l4.57-14-11.91-8.62a2.16,2.16,0,0,1-.8-2.44,2.17,2.17,0,0,1,2.08-1.51l14.7,0,4.52-14A2.15,2.15,0,0,1-80,118.15a2.15,2.15,0,0,1,2.08,1.51Z" transform="translate(354.38)"/><path class="cls-5" d="M-9.62,133.65l14.69,0a2.19,2.19,0,0,1,1.29,3.95l-11.91,8.62,4.57,14a2.14,2.14,0,0,1-.79,2.44,2.15,2.15,0,0,1-2.57,0l-11.88-8.66-11.87,8.66a2.15,2.15,0,0,1-2.57,0,2.14,2.14,0,0,1-.79-2.44l4.57-14-11.91-8.62a2.16,2.16,0,0,1-.8-2.44,2.17,2.17,0,0,1,2.08-1.51l14.7,0,4.52-14a2.15,2.15,0,0,1,2.07-1.51,2.16,2.16,0,0,1,2.08,1.51Z" transform="translate(354.38)"/><path class="cls-5" d="M54.17,133.65l14.69,0a2.19,2.19,0,0,1,1.29,3.95l-11.91,8.62,4.57,14a2.18,2.18,0,0,1-3.36,2.44l-11.88-8.66L35.7,162.6a2.18,2.18,0,0,1-3.36-2.44l4.57-14L25,137.57a2.18,2.18,0,0,1,1.28-3.95l14.7,0,4.52-14a2.18,2.18,0,0,1,4.15,0Z" transform="translate(354.38)"/><path class="cls-6" d="M118,133.65l14.69,0a2.19,2.19,0,0,1,1.29,3.95L122,146.19l4.57,14a2.18,2.18,0,0,1-3.36,2.44l-11.88-8.66L99.49,162.6a2.18,2.18,0,0,1-3.36-2.44l4.57-14-11.91-8.62a2.18,2.18,0,0,1,1.28-3.95l14.7,0,4.52-14a2.18,2.18,0,0,1,4.15,0Z" transform="translate(354.38)"/><path class="cls-5" d="M-201,133.65l14.69,0a2.16,2.16,0,0,1,2.08,1.51,2.14,2.14,0,0,1-.79,2.44l-11.91,8.62,4.57,14a2.14,2.14,0,0,1-.79,2.44,2.15,2.15,0,0,1-2.57,0l-11.88-8.66-11.87,8.66a2.15,2.15,0,0,1-2.57,0,2.14,2.14,0,0,1-.79-2.44l4.57-14-11.91-8.62a2.16,2.16,0,0,1-.8-2.44,2.17,2.17,0,0,1,2.08-1.51l14.7,0,4.52-14a2.15,2.15,0,0,1,2.07-1.51,2.16,2.16,0,0,1,2.08,1.51Z" transform="translate(354.38)"/><path class="cls-7" d="M-354.38,198.61c.27,6.83,1,9.12,3.83,11.77,3.94,3.7-1.9,7.12-1.17,11.06.27,1.55,2.34.2,3.73-.9s-1.56,3.38.38,2.66a10.39,10.39,0,0,0,3.45-2.59s-.62,3.38.66,2.93c6-2.14,3.62-17.75,1.07-21.55-.21-.34-6.95-9-10.33-11.19-2-1.31-1.45,3.32-1.45,3.32Z" transform="translate(354.38)"/><path class="cls-8" d="M-353,186.28c10.22,13.5,12.78,12.05,12.4,21.55-.07,2.49-.07,4.25,0,5.49.14,5.84-5,1.73-4.69-6.22a13.67,13.67,0,0,1-6.6-11.15c-.35-7.84-1.07-9.67-1.07-9.67Z" transform="translate(354.38)"/><path class="cls-9" d="M251.76,135.58a28.38,28.38,0,0,1-4.62,33.27c-24.81,27.06-32,73.84,13.16,62.23s39.1-57.44,35.09-65-1.12-35.86-10.57-37.37-33.06,6.86-33.06,6.86Z" transform="translate(354.38)"/><path class="cls-9" d="M359,678.88l2.37,2.07s-2.93,23.78-1.2,32.63h-5l-3.62-25.38Z" transform="translate(354.38)"/><path class="cls-9" d="M457.27,664.73l2.37,2.89s-2.93,33.49-1.25,46h-4.92l-3.62-35.74Z" transform="translate(354.38)"/><path class="cls-10" d="M304.24,427.45s30.85,70.43,36.16,80.31,52.13,80.71,68.15,115.71,16.74,34.44,16.57,44.15-3.8,23.9-4,25.07-2.29,12.52-.78,12.91S435.56,692,435.56,692s7.26-9.45,8.59-11.91,9.41-8.8,9.41-8.8l6-13.34a36.67,36.67,0,0,1-18-15.41c-7-11.82-58.65-135.17-64.39-143.93S353,464.18,347.44,453.34s-4.75-48.94-4.75-48.94Z" transform="translate(354.38)"/><path class="cls-11" d="M319.08,412.21s8.38,65.86,9.15,73.11S341.57,646.69,340,655.06s-12.94,36.34-20.37,43.41,3.85,8.55,6.48,8.72,31.8-31,32.93-32.54a6.22,6.22,0,0,0,1.16-3.41s-5.13-18.08-5-21.1,7.59-120.28,6.08-132.11-3.79-32.32-4.18-38.45,3.06-79.92,2.28-84.5-40.35,17.13-40.35,17.13Z" transform="translate(354.38)"/><path class="cls-12" d="M278.9,272.26,286,290.9s-2.5,6.86-1,21.32,11,99.35,5.7,145c0,0,67,33.49,130.94-27,0,0-22.1-26.67-31.21-61.28s-34.65-99.74-61.67-109.06-49.89,12.39-49.89,12.39Z" transform="translate(354.38)"/><path class="cls-13" d="M273.21,183.74s12.12,12.56,14.24,25.42-11.74,82.39-12.3,86.36-52.06,65.53-52.06,65.53V344.17s32.34-51.93,33.76-59.22-.6-54.69-.6-54.69L258,197.42Z" transform="translate(354.38)"/><path class="cls-14" d="M275.71,125.26l-2.54,15.8s10,15.23,5.95,27.66,25-7.08,33-16.1S316.84,139,316.84,139s-13.9-12.09-17.13-25.17-24,11.48-24,11.48Z" transform="translate(354.38)"/><path class="cls-7" d="M266.47,163.93c.18-1.51.35-11.22.35-11.22s-1.51-10.66-6.09-12.56,12.09-10.66,12.09-10.66,16.66-3,18.51-.82,4,12.69,4,12.69-1.56,16.92-4.23,17.26-24.65,5.31-24.65,5.31Z" transform="translate(354.38)"/><path class="cls-8" d="M250.07,74.38c-3.15,2.33-7.38,5.09-8.84,12.09-1.6,7.85-.13,20.28-1.6,25.85-2,7.64-4.14,8.76-3.71,10.27.39,1.34,2.55,1.08,4.92,2.46,1.34.82,1.38,4.31,1.81,5.78,1.86,6-.6,13.72,16,11.87a62.26,62.26,0,0,0,32.71-14c8.94-7.33,10.75-32.32,3.2-39.27s-24.26-26.2-44.46-15Z" transform="translate(354.38)"/><path class="cls-15" d="M295.35,141.36s30.55,23.18,34.57,43.16-8.16,54.42,7.42,77.25c0,0,3.15,3.62,3.24,4.57s-25.3,35.22-56.15,33.32a3,3,0,0,1-1.21-2c-.13-1.21-20.76-44-26.84-51.66s-11.22-19.42-12-25.5,17.2-33,19.1-41.05,3.34-26.71,3.34-26.71,15.23,2.29,28.53-11.35Z" transform="translate(354.38)"/><path class="cls-16" d="M266.82,152.71s11.31,1.73,22.92-6.52a24.08,24.08,0,0,0,3.75.65c1.17-.13,16.56,11.68-7.69,18.25-16.06,4.31-18.91,5.44-20.2,2.59Z" transform="translate(354.38)"/><path class="cls-13" d="M244.12,270.1s35.52-70.05,40.57-79,18.17-12.3,25-7.77,3,27-9.11,44.84S257,285.08,253.79,286.37s-8,.43-9.5-2.29-1.68-11.39-.17-14Z" transform="translate(354.38)"/><path class="cls-13" d="M176.66,223c15.5,9.28,70.83,41.39,75,44,4.79,3,10.14,13.29,2.89,18.9s-20.71-1.68-27.27-6.56c-5.7-4.19-43.12-36-54.21-45.31,3.15-3.37,3.75-7.82,3.62-11Z" transform="translate(354.38)"/><path class="cls-9" d="M241.27,86.12S234.5,67,244,60c10.44-7.69,53.38-22.7,54.64,2.37,0,0,13.81-.26,17.69,11.09s-2.2,24.08,15.1,34.87,46.1,39.32,34.1,68.71-50.11,37.5-73,20.8-18.81-31.42-18-40.13S268,140.8,259.7,134.54s-9.41-14.63-3.76-23-3.14-22.09-14.67-25.46Z" transform="translate(354.38)"/><path class="cls-17" d="M421.11,692.69a25.13,25.13,0,0,0-5,1.38c-1.68.82-11.87,9.54-13,10.45s-4.45,9.06,4.4,9.06h16c3.24,0,12.86-12.17,16.36-17.05s20.37-26.19,21.32-27.62,2.41-11.3-1.6-11c0,0-30.43,37.8-31.07,38.54s-1.9,1.46-4.67,2-2.71-2.29-2.71-5.83Z" transform="translate(354.38)"/><path class="cls-17" d="M321.33,696.66a21.92,21.92,0,0,0-5,.35c-1.68.47-11.87,7.16-13,7.81s-4.66,8.76,4.4,8.76h21.58c4.4,0,7.25-5.14,10.74-9.33s20.37-22.09,21.32-23.3,2.42-10.83-1.59-11.3c0,0-30.43,31.71-31.08,32.27S326.77,703,324,703s-2.67-2.8-2.67-6.34Z" transform="translate(354.38)"/></g><path class="cls-18" d="M131.73,181.41,144,204a1.74,1.74,0,0,1-3,1.67l-12.33-22.82a10.65,10.65,0,0,0,3.16-1.47Z" transform="translate(354.38)"/><path class="cls-19" d="M98.16,110.53A39.32,39.32,0,1,1,82.1,136a39.13,39.13,0,0,1,16.06-25.43Z" transform="translate(354.38)"/><path class="cls-5" d="M114.58,130.87l-14.52-.05a2.16,2.16,0,0,0-1.29,3.92l11.8,8.52L106.06,157a2.14,2.14,0,0,0,.74,2.43,2.26,2.26,0,0,0,2.58,0l11.69-8.57,11.75,8.57a2.26,2.26,0,0,0,2.58,0,2.15,2.15,0,0,0,.75-2.43l-4.52-13.78,11.8-8.52a2.28,2.28,0,0,0,.79-2.43,2.17,2.17,0,0,0-2.08-1.49l-14.52.05L123.16,117a2.09,2.09,0,0,0-2.09-1.49,2.05,2.05,0,0,0-2,1.49Z" transform="translate(354.38)"/><path class="cls-20" d="M96.1,107.62a42.84,42.84,0,1,0,32-7.21,42.79,42.79,0,0,0-32,7.21Zm31.05-1.76a37.32,37.32,0,1,1-27.85,6.27,37.07,37.07,0,0,1,27.85-6.27Z" transform="translate(354.38)"/><path class="cls-8" d="M137.05,211.14c-.22-.51,2.46-7.2,3.71-8.76s2.5-3.75,7.59-3,6.44.78,8.64,2.16,13.72,17.35,15.71,19c.25.22,1.68,1.08,4,2.46.13,3.19-.47,7.64-3.62,11-1.77-1.47-2.89-2.38-3.06-2.55-1.47-1-9.63-1.51-11.22-2.2s-5.18-8.24-6.78-9.32-5.14,1.68-4.75,2.89c0,0-2.37-.91-3-1.94a10,10,0,0,1-.86-2.89,8.65,8.65,0,0,1-2.59-.91,6.62,6.62,0,0,1-.73-2.16,8.89,8.89,0,0,1-3-3.76Z" transform="translate(354.38)"/><path class="cls-9" d="M241.27,86.12S234.5,67,244,60c10.44-7.69,53.38-22.7,54.64,2.37,0,0,13.81-.26,17.69,11.09s-2.2,24.08,15.1,34.87,46.1,39.32,34.1,68.71-50.11,37.5-73,20.8-18.81-31.42-18-40.13S268,140.8,259.7,134.54s-9.41-14.63-3.76-23-3.14-22.09-14.67-25.46Z" transform="translate(354.38)"/></g></g></svg>