<svg xmlns="http://www.w3.org/2000/svg" xmlns:xlink="http://www.w3.org/1999/xlink" viewBox="0 0 344.6 654.03"><defs><style>.cls-1{fill:none;}.cls-2{isolation:isolate;}.cls-19,.cls-3{fill:#23bec4;}.cls-3{opacity:0.3;}.cls-4{clip-path:url(#clip-path);}.cls-5{fill:#142148;}.cls-6{fill:url(#linear-gradient);}.cls-7{fill:url(#linear-gradient-2);}.cls-8{fill:url(#linear-gradient-3);}.cls-9{fill:#e38b6d;}.cls-10{fill:#ed6f58;}.cls-11{fill:url(#linear-gradient-4);}.cls-12{fill:url(#linear-gradient-5);}.cls-13{fill:#263238;}.cls-14{fill:url(#linear-gradient-6);}.cls-15{fill:url(#linear-gradient-7);}.cls-16{fill:#fff;}.cls-17,.cls-23{opacity:0.2;}.cls-18{fill:url(#linear-gradient-8);}.cls-20,.cls-21,.cls-23{fill:#243f87;}.cls-20{opacity:0.4;}.cls-22{fill:url(#linear-gradient-9);}.cls-24{opacity:0.15;mix-blend-mode:multiply;}.cls-25{fill:url(#linear-gradient-10);}</style><clipPath id="clip-path"><circle class="cls-1" cx="172.3" cy="197.66" r="172.3"/></clipPath><linearGradient id="linear-gradient" x1="60.83" y1="169.54" x2="82.95" y2="169.54" gradientUnits="userSpaceOnUse"><stop offset="0" stop-color="#f9baba"/><stop offset="1" stop-color="#f5928f"/></linearGradient><linearGradient id="linear-gradient-2" x1="61.5" y1="211.81" x2="105.58" y2="211.81" xlink:href="#linear-gradient"/><linearGradient id="linear-gradient-3" x1="75.28" y1="192.01" x2="98.11" y2="192.01" xlink:href="#linear-gradient"/><linearGradient id="linear-gradient-4" x1="153.62" y1="613.3" x2="179.76" y2="613.3" xlink:href="#linear-gradient"/><linearGradient id="linear-gradient-5" x1="248.99" y1="608.78" x2="277.07" y2="608.78" xlink:href="#linear-gradient"/><linearGradient id="linear-gradient-6" x1="223.33" y1="100.28" x2="238.65" y2="100.28" xlink:href="#linear-gradient"/><linearGradient id="linear-gradient-7" x1="187.51" y1="135.43" x2="217.66" y2="135.43" xlink:href="#linear-gradient"/><linearGradient id="linear-gradient-8" x1="178.85" y1="100.76" x2="230.19" y2="100.76" xlink:href="#linear-gradient"/><linearGradient id="linear-gradient-9" x1="168.41" y1="232.14" x2="216.16" y2="232.14" xlink:href="#linear-gradient"/><linearGradient id="linear-gradient-10" x1="51.65" y1="51.89" x2="126.75" y2="51.89" gradientTransform="matrix(1, 0.02, -0.02, 1, -20.57, 15.38)" gradientUnits="userSpaceOnUse"><stop offset="0" stop-color="#f58f86"/><stop offset="1" stop-color="#ed72ac"/></linearGradient></defs><title>Asset 3</title><g class="cls-2"><g id="Layer_2" data-name="Layer 2"><g id="Layer_1-2" data-name="Layer 1"><circle class="cls-3" cx="172.3" cy="197.66" r="172.3"/><g class="cls-4"><path class="cls-5" d="M83.78,254.6s-6-15.31,18.8-36l-.38,34.22Z"/><path class="cls-6" d="M83,183.4c-8.84-18-16-31-20.6-28.93a3,3,0,0,0-1.42,3.46c2.4,9.39,12.11,26.9,12.11,26.9Z"/><path class="cls-7" d="M105.58,211.07l-3.5,33.24s-10,7.95-10.53,8.77c-.23.36-3.67-7.79-7.46-17.07-2.5-6.11-5.16-12.7-7.15-17.68-6.07-3.31-11.35-9.4-15.1-19.9a5.85,5.85,0,0,1,.42-4.89L65.51,188a11.78,11.78,0,0,0,1.6-6.6l-.32-6.71a1.78,1.78,0,0,1,.48-1.3l2.4-2.47a1.13,1.13,0,0,1,1.56-.1l5,4.1-1-.06s.83,8.68,7.28,9.11l3.36,4.3,4.92,12.39L95.55,198l7.66,10Z"/><path class="cls-8" d="M96.34,207.83l-2.11,1.35-8.32-20.93L82.56,184c-6.46-.43-7.28-9.11-7.28-9.11l1,.06,7.6.45A8.48,8.48,0,0,1,89.48,178l5.16,5.35a8.91,8.91,0,0,1,2.13,3.73A35.85,35.85,0,0,1,96.34,207.83Z"/><path class="cls-9" d="M105.59,211.07l-3.51,33.24s-10,7.95-10.53,8.77c-.22.36-3.67-7.79-7.46-17.07l19.12-28Z"/><path class="cls-9" d="M86.21,189.39c-.49-.58-2.69-3.53-3.39-4.46-7.68-.58-8.29-10-8.29-10.05l0-.78.78,0c12.44-.28,15.07,3,16.64,5a7,7,0,0,0,.74.86l-1,1.12a8.53,8.53,0,0,1-.92-1c-1.45-1.84-3.64-4.6-14.61-4.48.31,2.1,1.63,7.66,7.13,7.87l.36,0,.21.29c1,1.39,3.11,4.15,3.54,4.66Z"/><path class="cls-9" d="M81.35,191.84a3.09,3.09,0,0,1-1.91-.67c-1-.84-8.07-6.38-8.07-6.38l.93-1.19s7.06,5.56,8.1,6.41a1.52,1.52,0,0,0,1.44.24c.89-.35,1.55-1.67,1.85-3.72l1.49.22c-.49,3.34-1.79,4.51-2.8,4.9A3,3,0,0,1,81.35,191.84Z"/><path class="cls-9" d="M74.63,175.23c-.66-.66-6.09-1.44-7.15-1.14l-.41-1.44c1.32-.38,8,.32,8.85,1.8Z"/><path class="cls-9" d="M81,200c-2.2,0-4.91-1.78-5.29-2l-6.32-4.15.82-1.26,6.33,4.16c1.62,1.09,4.4,2.33,5.27,1.55a1.7,1.7,0,0,0,.45-1.35,9.24,9.24,0,0,0-2.74-5.58l1-1.16a10.71,10.71,0,0,1,3.28,6.71,3.16,3.16,0,0,1-.94,2.5A2.64,2.64,0,0,1,81,200Z"/><path class="cls-9" d="M76.38,205.13a9.94,9.94,0,0,1-4.68-1.82l-5.56-3.65.82-1.25,5.57,3.65c1.4.95,3.79,2,4.52,1.38a1.39,1.39,0,0,0,.36-1.12A8.1,8.1,0,0,0,75,197.48l1-1.16a9.5,9.5,0,0,1,2.92,6,2.84,2.84,0,0,1-.86,2.26A2.43,2.43,0,0,1,76.38,205.13Z"/><path class="cls-10" d="M153.62,626l-1.63,7.4c-12.74.89-28.6,9.65-36.38,20.62h60.85l2.1-31.49C170.51,624.5,160.84,626.26,153.62,626Z"/><path class="cls-11" d="M178.56,622.54l1.2-18.06-20.52-3.93L153.62,626C160.84,626.26,170.51,624.5,178.56,622.54Z"/><path class="cls-12" d="M277.07,621.07l-7.52-26.13L249,597.69l5,24.85A114.47,114.47,0,0,0,277.07,621.07Z"/><path class="cls-10" d="M313.77,641.43c-10.12-13.58-22.39-14-35.12-14.86l-1.58-5.5A114.47,114.47,0,0,1,254,622.54l6.3,31.37Z"/><path class="cls-13" d="M212.5,296.14l-2.64,73.22c-.06,2-.12,4-.19,5.91-1.36,40.21-4,78.83-7.6,116.15-4.11,42.27-9.49,82.88-15.82,122.3H144.7c-5.54-87.87-14.86-193.35,2.25-288.78l10.43-25.51Z"/><path class="cls-14" d="M223.33,109.23c18.89,2.82,21.4-27.26,1.34-15.23Z"/><path class="cls-9" d="M227.7,101a7.22,7.22,0,0,1-.07-3,5.58,5.58,0,0,1,1.51-2.82,4,4,0,0,1,3.07-1.25,3.21,3.21,0,0,1,2.7,1.74l-.47.35a2.94,2.94,0,0,0-2.22-.77,3.42,3.42,0,0,0-2,1,6,6,0,0,0-1.33,2.09,13.51,13.51,0,0,0-.56,2.65Z"/><path class="cls-13" d="M269.65,329.05c10.43,87.21,19.46,184.84,15.45,275.89L240,613.72c-12.33-75.93-33.86-173.6-36.61-261.63l-6-71.58L265,299.43Z"/><rect class="cls-15" x="187.51" y="116.75" width="30.15" height="37.37"/><path class="cls-16" d="M187.32,139.76c11,15.3,25.07,8.6,30.33-1.68l35.86,159.3c-33.46,14.41-65.63,16.54-95.77-.55l19-150.84Z"/><path class="cls-13" d="M234.29,93.65c6.68-13.18,8.17-33.56-7.36-34.41C213.45,46,191.66,47.77,179,61.64c-24.49-7.53-28.1,37.33,3.05,35.62Z"/><path class="cls-17" d="M187.51,116.75v19.87c8.9.2,16.39-3.11,20.94-8.81,0,0-8.79-6.14-15.72-11.06Z"/><path class="cls-18" d="M230.19,80.5l-2.4,23.07c-3.65,10.23-8.16,17.44-13.84,22a22.2,22.2,0,0,1-20.41,4.09,19.29,19.29,0,0,1-12.87-12.26,20.29,20.29,0,0,1-.37-11.16,15.89,15.89,0,0,0,.34-2,21.68,21.68,0,0,0-.64-7.93,40.24,40.24,0,0,1-.49-16.89l27-8.56Z"/><path class="cls-19" d="M177.29,358.12c-14,3.06-30.41,2.78-48.64,0,4.48-40.76,10.62-79.87,20.06-115.73l-39.36-3.84A146.56,146.56,0,0,1,111.86,219a177.9,177.9,0,0,1,6.22-23.21c.09-.28.19-.57.3-.85,9.5-27.5,26.76-48.21,69.19-55.28C200.86,203,199.85,296.68,177.29,358.12Z"/><path class="cls-19" d="M278.7,305.36c2.39,14.27,4.5,28.56,6.65,43.44-13.6,4.84-30,6.6-48.89,5.76a428.26,428.26,0,0,1-16.31-79.11,1.6,1.6,0,0,0,0-.3c-4.86-43.46-8-89.31-2.46-137a109.89,109.89,0,0,1,51.82,17.24,38,38,0,0,1,13.45,15.46c11.65,24,17.08,45.1,21.6,66.89l-36.48,14.82c1.07,4.45,2.07,8.86,3,13.21C274.05,279.21,276.5,292.27,278.7,305.36Z"/><path class="cls-19" d="M157.11,227l-4.89,39.75-2.27,3-11.18,14.79c-4.55,6-10.79,9-17.06,9.06-6.77.06-13.54-3.31-18.16-10.08l-19.78-29c9.74-13,19.11-26.23,21.81-43.54,12.76,14.87,16.55,20.48,16.55,20.48Z"/><path class="cls-13" d="M178.82,89A71.45,71.45,0,0,0,209,81.15c3.19,6.08,10.71,14.11,21.74,11.1l1.2-6.64.86-11.3L199.54,63.69l-26,8.56Z"/><path class="cls-20" d="M278.7,305.36c-21.21-2.06-41.32-11.84-58.55-29.91-.07-.09-.16-.16-.24-.25l.21-.05,51-9.4C274.05,279.21,276.5,292.27,278.7,305.36Z"/><rect class="cls-21" x="115.74" y="207.3" width="1.5" height="35.37" transform="translate(-113.95 119.69) rotate(-38.07)"/><path class="cls-20" d="M261.53,194l7.52,43.12s-13.41,8.89-17.53,1.61C248.3,233.08,252.52,214.53,261.53,194Z"/><path class="cls-22" d="M184.3,224.67l-9.13.64a2.43,2.43,0,0,0-2.12,1.85l-.06.23a5.64,5.64,0,0,0,.85,4.74l1.64,2.28a.87.87,0,0,1-.13,1.16h0a4.43,4.43,0,0,0-2.56,3.73,4.87,4.87,0,0,0,.1,1.16h0a4.14,4.14,0,0,0,2.82,3.18l.89.26a.2.2,0,0,1,.11.29l-1.29,2.14c-.95,1.67.44,4.81,1.81,5.93.28.47,1.16.64,1.67.71l4,.55a14.27,14.27,0,0,1,5.28,1.87c8.11,4.76,18,4.26,28,3.79l-.77-26.07a92.66,92.66,0,0,0-23.53-13.05l-21.41-15.24C165.76,206.89,168.69,212.68,184.3,224.67Z"/><path class="cls-19" d="M304.53,237.73l3.16,13.32c4.11,17.29-8.86,33.74-25.1,31.84l-77.22-9.37,5.89-44Z"/><rect class="cls-21" x="98.26" y="238.25" width="91.83" height="1.5" transform="translate(-110.1 354.11) rotate(-83.26)"/><rect class="cls-21" x="239.47" y="202.89" width="1.5" height="58.12" transform="translate(-11.16 451.75) rotate(-85.16)"/><path class="cls-9" d="M188,236.78c-.44-.05-10.86-1.14-12.72-1.66l.4-1.45c1.45.4,9.5,1.3,12.48,1.61Z"/><path class="cls-9" d="M189.37,246.68c-.45,0-11.17-1.13-13-1.65l.4-1.45c1.44.4,9.72,1.3,12.79,1.6Z"/><path class="cls-20" d="M140.51,273.7l-1.74,10.89c-4.55,6-10.79,9-17.06,9.06a123.59,123.59,0,0,1,20.86-43.45Z"/><path class="cls-23" d="M127.21,238.67,111.86,219a177.9,177.9,0,0,1,6.22-23.21c.09-.28.19-.57.3-.85C121.29,200.33,128.07,215.6,127.21,238.67Z"/></g><path class="cls-19" d="M154.69,120.65a53.78,53.78,0,0,1-22.44-16.59A66.72,66.72,0,0,0,143.4,67C143.4,29.79,112.19-.76,75,0a67,67,0,1,0,41.3,120.91c10.54,4.51,23,5.52,38.32,1.47A.93.93,0,0,0,154.69,120.65Z"/><g class="cls-24"><path class="cls-25" d="M65.58,55.06c-.19,13-8.35,19.82-17.44,19.79-9.9,0-17.83-7.63-17.64-20.09.17-11.85,7.64-20.29,18.73-19.46C60,36.1,65.74,44.41,65.58,55.06Zm-23.5-.25c-.1,6.8,2.13,11.75,6.48,11.83,4.19.08,6.27-4.19,6.38-11.33.1-6.45-1.56-11.55-6.13-11.82S42.18,48.3,42.08,54.81Zm9.19,41.94L82.8,39.67a3.19,3.19,0,0,1,3-1.64h0a3.19,3.19,0,0,1,2.56,4.71L57.21,99.81a3.18,3.18,0,0,1-2.66,1.66H54.2A3.19,3.19,0,0,1,51.27,96.75Zm53.94-16.08c-.18,12.08-7.19,18.69-15,19-8.36.37-15.1-6.29-15-17.78.17-10.92,6.53-19,16-18.78C100.43,63.38,105.36,70.8,105.21,80.67Zm-20,.79C85,87.74,86.9,92.21,90.62,92.11S96,88,96.09,81.37c.09-6-1.24-10.6-5.15-10.65S85.28,75.45,85.19,81.46Z"/></g><path class="cls-16" d="M67.11,54.45c-.2,13-8.36,19.83-17.45,19.79-9.9,0-17.83-7.63-17.64-20.09.18-11.85,7.64-20.29,18.73-19.46C61.51,35.5,67.27,43.8,67.11,54.45Zm-23.5-.25C43.5,61,45.73,66,50.08,66c4.19.08,6.28-4.19,6.38-11.33.1-6.45-1.55-11.54-6.13-11.82S43.7,47.69,43.61,54.2Zm9.18,41.94L84.32,39.07a3.16,3.16,0,0,1,3-1.64h0a3.19,3.19,0,0,1,2.56,4.71L58.73,99.2a3.18,3.18,0,0,1-2.66,1.66h-.34A3.19,3.19,0,0,1,52.79,96.14Zm53.94-16.08c-.18,12.08-7.18,18.69-15,19-8.35.36-15.1-6.3-15-17.79.16-10.92,6.52-19,16-18.78C102,62.78,106.88,70.2,106.73,80.06Zm-20,.79c-.18,6.29,1.72,10.76,5.43,10.65s5.37-4.14,5.47-10.74c.09-6-1.24-10.6-5.14-10.65S86.8,74.85,86.71,80.85Z"/></g></g></g></svg>