<svg xmlns="http://www.w3.org/2000/svg" xmlns:xlink="http://www.w3.org/1999/xlink" viewBox="0 0 339.43 376.88"><defs><style>.cls-1{fill:none;}.cls-11,.cls-19,.cls-2{fill:#23bec4;}.cls-2{opacity:0.3;}.cls-3{clip-path:url(#clip-path);}.cls-4{fill:#263238;}.cls-5{fill:url(#linear-gradient);}.cls-6{fill:#127f7f;}.cls-19,.cls-7{opacity:0.2;}.cls-8{fill:#b65b52;}.cls-10,.cls-9{fill:#1e7f7f;}.cls-10,.cls-13{opacity:0.1;}.cls-12{fill:#fff;}.cls-14{fill:url(#linear-gradient-2);}.cls-15{fill:url(#linear-gradient-3);}.cls-16{fill:url(#linear-gradient-4);}.cls-17{fill:url(#linear-gradient-5);}.cls-18{fill:url(#linear-gradient-6);}.cls-20{fill:#5274b8;}.cls-21{fill:url(#linear-gradient-7);}.cls-22{fill:url(#linear-gradient-8);}.cls-23{fill:url(#linear-gradient-9);}.cls-24{opacity:0.5;}.cls-25{opacity:0.4;}.cls-26{clip-path:url(#clip-path-2);}</style><clipPath id="clip-path" transform="translate(0 -53.98)"><circle class="cls-1" cx="157.86" cy="244.3" r="154.95"/></clipPath><linearGradient id="linear-gradient" x1="183.87" y1="147.1" x2="233.07" y2="147.1" gradientUnits="userSpaceOnUse"><stop offset="0" stop-color="#f9baba"/><stop offset="1" stop-color="#f5928f"/></linearGradient><linearGradient id="linear-gradient-2" x1="268.32" y1="305.28" x2="282.54" y2="305.28" xlink:href="#linear-gradient"/><linearGradient id="linear-gradient-3" x1="317.83" y1="293.54" x2="335.03" y2="293.54" xlink:href="#linear-gradient"/><linearGradient id="linear-gradient-4" x1="237.68" y1="113.27" x2="255.5" y2="113.27" xlink:href="#linear-gradient"/><linearGradient id="linear-gradient-5" x1="225.07" y1="93.18" x2="252.59" y2="93.18" xlink:href="#linear-gradient"/><linearGradient id="linear-gradient-6" x1="249.51" y1="92.84" x2="255.86" y2="92.84" xlink:href="#linear-gradient"/><linearGradient id="linear-gradient-7" x1="208.56" y1="154.22" x2="268.17" y2="154.22" xlink:href="#linear-gradient"/><linearGradient id="linear-gradient-8" x1="204.99" y1="178.45" x2="213.14" y2="178.45" xlink:href="#linear-gradient"/><linearGradient id="linear-gradient-9" x1="198.38" y1="124.47" x2="205.55" y2="124.47" xlink:href="#linear-gradient"/><clipPath id="clip-path-2" transform="translate(0 -53.98)"><path class="cls-1" d="M355.08,98.73c-1.17-9.39,44.61-123.26-82.17-93.91S128.52,67,128.52,67V191.47L141.43,242l108,48.13,51.65-27,65.74-74Z"/></clipPath></defs><title>Asset 1</title><g id="Layer_2" data-name="Layer 2"><g id="Layer_1-2" data-name="Layer 1"><circle class="cls-2" cx="158.16" cy="186.33" r="158.16"/><g class="cls-3"><path class="cls-4" d="M227.64,97.13c-6.76-9.12-5.17-17.07,0-22.8,6.45-7.18,17-7.12,24-3.45,11,5.73,13.36,30.85-5,34.4A148.88,148.88,0,0,1,227.64,97.13Z" transform="translate(0 -53.98)"/><path class="cls-4" d="M249.51,72.46c6.71-4,4.86-11.64,10.94-15.68,8.46-5.61,26.69-3.18,21,10.85s14.63,14.83,8.7,28.76-23,22.47-27.4,2.28c-3.29-15.14,10.68-34.64-.59-32.54-7,1.31-9.39,8.54-9.39,8.54Z" transform="translate(0 -53.98)"/><path class="cls-5" d="M232.78,131.86c-.92,2.55-1.92,4.86-3,7.25s-2.23,4.68-3.48,7A60.48,60.48,0,0,1,217,159.4a25.52,25.52,0,0,1-3.45,3,24.77,24.77,0,0,1-3.9,2.21,40.67,40.67,0,0,1-7.81,2.6,65.47,65.47,0,0,1-15.6,1.69,2.43,2.43,0,0,1-.56-4.79l.11,0a119.7,119.7,0,0,0,13.83-4.17,41.53,41.53,0,0,0,6.15-2.88,19.73,19.73,0,0,0,2.49-1.72,17.16,17.16,0,0,0,2.09-2.09,41.66,41.66,0,0,0,3.89-5.45c1.21-2,2.38-4,3.45-6.18,2.13-4.25,4.16-8.77,5.9-13.13l0-.07a4.88,4.88,0,0,1,9.12,3.48Z" transform="translate(0 -53.98)"/><path class="cls-6" d="M231.32,123.55c-9.27,1.07-14.37,15-14.37,15l9.49,13.37s11.26-12.72,12.2-18.39C239.61,127.59,238.18,122.76,231.32,123.55Z" transform="translate(0 -53.98)"/><path class="cls-7" d="M226.25,132.06c3.11-1.95,6.49-.88,9.38,2.75a9.7,9.7,0,0,1,1.17,3.38c-2.79,5.08-10.37,13.7-10.37,13.7l-4.34-6.12C221.76,142.15,224.24,133.31,226.25,132.06Z" transform="translate(0 -53.98)"/><path class="cls-8" d="M187.93,164.68,181,160.91,180.8,170s4.66,1,7.75-1.48Z" transform="translate(0 -53.98)"/><polygon class="cls-8" points="173.93 107.24 175.16 114.68 180.8 116.04 180.99 106.93 173.93 107.24"/><path class="cls-9" d="M209.16,144.83l-6.13-5-41.74,62.7,6.13,5c7,5.77,22.09-3.6,33.62-20.91S216.2,150.6,209.16,144.83Z" transform="translate(0 -53.98)"/><path class="cls-10" d="M209.16,144.83l-6.13-5-41.74,62.7,6.13,5c7,5.77,22.09-3.6,33.62-20.91S216.2,150.6,209.16,144.83Z" transform="translate(0 -53.98)"/><ellipse class="cls-11" cx="182.16" cy="171.16" rx="37.71" ry="16.38" transform="translate(-59.87 179.61) rotate(-57.68)"/><path class="cls-12" d="M174.43,181.44l5.63-8.46a8.91,8.91,0,0,1-.08-5.35,21,21,0,0,1,3-6.18,17.16,17.16,0,0,1,4.55-4.87c1.57-1,2.9-1.28,4-.74l1.36-2,1.19,1-1.36,2a5,5,0,0,1,.62,3.9,18.65,18.65,0,0,1-2.23,5.64l-2.52-1a6.81,6.81,0,0,0,1.16-4l-5.25,7.89a9.24,9.24,0,0,1,.42,5.6A23.61,23.61,0,0,1,177,186.14q-2.56,1.77-4.54,1l-1.36,2.05-1.19-1,1.29-1.94a5.68,5.68,0,0,1-.57-4.5,24.46,24.46,0,0,1,3-7.08l2.52,1.19a15.77,15.77,0,0,0-1.37,3.19A6.5,6.5,0,0,0,174.43,181.44Zm14.11-21.2a2.91,2.91,0,0,0-1.68.74,8,8,0,0,0-1.72,1.91,8.72,8.72,0,0,0-1.06,2.2,4.85,4.85,0,0,0-.19,2.14ZM175.43,182.7a2.39,2.39,0,0,0,1.94-.58,9,9,0,0,0,2.14-2.32,8.82,8.82,0,0,0,1.23-2.6,4.06,4.06,0,0,0-.07-2.37Z" transform="translate(0 -53.98)"/><path class="cls-13" d="M201.2,160.62c.83-5.5,0-9.91-2.61-12.07-5.73-4.7-18,2.92-27.38,17a61,61,0,0,0-8.66,19.06c1-6.44,4.16-14.38,9.23-22,9.39-14.1,21.65-21.73,27.38-17C202.26,148.16,202.82,153.77,201.2,160.62Z" transform="translate(0 -53.98)"/><polygon class="cls-14" points="282.54 315.81 273.12 316.71 268.32 294.75 277.74 293.85 282.54 315.81"/><polygon class="cls-15" points="335.03 302.24 326.28 305.67 317.83 284.85 326.59 281.41 335.03 302.24"/><path class="cls-4" d="M323.73,355.34l9.6-4.78a.77.77,0,0,1,1,.25l4.87,7.05a1.54,1.54,0,0,1-.61,2.21c-3.38,1.6-4.85,2.41-9.07,4.51-2.6,1.3-8.41,4.34-12,6.12S312,369,313.29,368c6-4.78,7.95-8.37,9.27-11.39A2.44,2.44,0,0,1,323.73,355.34Z" transform="translate(0 -53.98)"/><path class="cls-4" d="M271.27,365.79H282.6a.94.94,0,0,1,.9.69l2.46,9a1.4,1.4,0,0,1-1.38,1.79c-4-.07-5.86,0-10.84,0H258.53c-4.14,0-5-4.19-3.34-4.57,7.68-1.7,12.11-4,14.48-6.28A2.34,2.34,0,0,1,271.27,365.79Z" transform="translate(0 -53.98)"/><polygon class="cls-7" points="268.32 294.76 270.79 306.08 280.42 306.08 277.75 293.86 268.32 294.76"/><polygon class="cls-7" points="326.59 281.42 317.83 284.85 322.19 295.58 330.95 292.15 326.59 281.42"/><path class="cls-6" d="M260.09,114.08c7.49-.87,12.4,2.7,12.68,10.18,1,26.38,3.9,32.46,8.31,46.09l-37.37,10.41C230.42,152,225.78,138.42,224.27,132a7,7,0,0,1,3.61-7.57A86.82,86.82,0,0,1,260.09,114.08Z" transform="translate(0 -53.98)"/><path class="cls-16" d="M248.72,96.39c.45,5.76,1.94,15.77,6.78,18.35,0,0-.71,3.55-13.09,15.42-7.64-6.45-3.74-10.77-3.74-10.77,5.69-3.15,4.35-7.25,2.11-11.2Z" transform="translate(0 -53.98)"/><path class="cls-7" d="M247.86,97.68a23.94,23.94,0,0,1,.34,10c-.43,2.28-2.88,3.95-5.61,4.93a15.29,15.29,0,0,0-1.81-4.42Z" transform="translate(0 -53.98)"/><path class="cls-17" d="M250.92,85.52c1.83,9.3,2.81,13.2-.59,19.11-5.1,8.89-16.92,9.11-21.5.54-4.12-7.71-6.43-21.62,1.58-27.61A12.93,12.93,0,0,1,250.92,85.52Z" transform="translate(0 -53.98)"/><path class="cls-18" d="M255.78,91.18a6.93,6.93,0,0,1-1.28,5.14c-1.46,1.94-3.66,1-4.48-1.16-.75-1.93-.89-5.27,1.17-6.45A3.11,3.11,0,0,1,255.78,91.18Z" transform="translate(0 -53.98)"/><path class="cls-4" d="M242.76,80.59c-.34,3.57,2.51,9.64,7.85,11,5.55-6.37,1.9-15.1-3.2-15.29S242.76,80.59,242.76,80.59Z" transform="translate(0 -53.98)"/><path class="cls-4" d="M235.3,70.9c-8.19.37-17,4-13.92,16.83,7.14-1.49,27-3.71,28.52-8.81C247.89,72.38,240.65,70.65,235.3,70.9Z" transform="translate(0 -53.98)"/><path class="cls-11" d="M243.71,180.76s-2.16,75.49,3.89,104c6.29,29.64,20.51,72,20.51,72l13.35-.86s-8.62-55.39-11.27-78.24c-3.66-31.51.89-104.52.89-104.52Z" transform="translate(0 -53.98)"/><path class="cls-19" d="M262.52,204.37c.6-6.85,5.76-5.54,6.92,3.73-.51,14.57-.87,31.52-.58,46.34C263.29,243.57,261.13,219.94,262.52,204.37Z" transform="translate(0 -53.98)"/><polygon class="cls-4" points="283.16 302.76 267.08 303.85 264.85 296.31 282.24 294.47 283.16 302.76"/><path class="cls-11" d="M256.89,177.09s11.38,63.28,26.83,97.33c12.48,27.5,35.09,71.81,35.09,71.81l12.26-4.58S311.89,291.35,305,272c-17.27-48.25-7.87-77.52-23.88-101.64Z" transform="translate(0 -53.98)"/><polygon class="cls-4" points="332.52 288.83 318.36 293.75 314.33 286.51 331.17 282.33 332.52 288.83"/><path class="cls-4" d="M281,168l2.62,2.88c.2.22,0,.57-.47.69L244,182.48c-.34.1-.66,0-.74-.2L242,179c-.09-.22.15-.5.52-.6l37.84-10.54A.71.71,0,0,1,281,168Z" transform="translate(0 -53.98)"/><path class="cls-20" d="M277.12,173.65l1-.28c.2-.06.32-.21.28-.33l-1.69-4.21c-.05-.13-.25-.18-.46-.12l-1,.28c-.2,0-.33.2-.28.32l1.69,4.22A.37.37,0,0,0,277.12,173.65Z" transform="translate(0 -53.98)"/><path class="cls-20" d="M246.94,182.05l1-.28c.21-.06.33-.2.28-.33l-1.68-4.21c-.05-.12-.26-.18-.46-.12l-1,.28c-.21.06-.33.2-.28.33l1.68,4.21C246.53,182.05,246.74,182.11,246.94,182.05Z" transform="translate(0 -53.98)"/><path class="cls-20" d="M262,177.85l1-.28c.2-.06.32-.2.27-.33L261.64,173c-.05-.12-.26-.18-.46-.12l-1,.28c-.2.06-.33.2-.28.33l1.69,4.21A.37.37,0,0,0,262,177.85Z" transform="translate(0 -53.98)"/><path class="cls-21" d="M268.17,131.73c-2.9,6-5.94,11.92-9.13,17.79-1.59,2.94-3.19,5.87-4.89,8.77s-3.4,5.8-5.37,8.71c-.46.72-1,1.48-1.57,2.22l-.2.28-.11.14-.17.21a7.71,7.71,0,0,1-.7.78,12.26,12.26,0,0,1-1.37,1.21,24.27,24.27,0,0,1-5.24,2.9,65.75,65.75,0,0,1-10,3.17,138.61,138.61,0,0,1-20,3.12l-.77-4.77c3.13-.83,6.32-1.7,9.45-2.61s6.24-1.88,9.27-2.94a69.72,69.72,0,0,0,8.63-3.54,17.59,17.59,0,0,0,3.31-2.12,4,4,0,0,0,.46-.46,1.1,1.1,0,0,0,.12-.16l.24-.37c.4-.63.8-1.21,1.2-1.91,1.59-2.67,3.17-5.54,4.69-8.42l4.55-8.72,8.94-17.6Z" transform="translate(0 -53.98)"/><path class="cls-22" d="M211.6,176.32,205,173.78l.56,9.33s5.19,0,7.59-3.19Z" transform="translate(0 -53.98)"/><polygon class="cls-23" points="199.79 120.08 198.38 126.94 205.55 129.13 204.99 119.8 199.79 120.08"/><path class="cls-6" d="M260,118.9c-3.69,1.7-8,17-8,17l16,1.86s3.09-7.46,2.47-11.28C269.52,120.36,264.25,117,260,118.9Z" transform="translate(0 -53.98)"/><path class="cls-20" d="M319,358.08a1.66,1.66,0,0,1-.15-.33.78.78,0,0,1,.12-.77c.77-1,4.2-.56,4.59-.52a.22.22,0,0,1,.19.16.22.22,0,0,1-.07.24c-1,.81-2.79,2.13-4,1.8A1.22,1.22,0,0,1,319,358.08Zm4-1.22c-1.38-.12-3.23-.1-3.64.4a.33.33,0,0,0,0,.34.86.86,0,0,0,.56.62C320.44,358.4,321.59,357.89,322.93,356.86Z" transform="translate(0 -53.98)"/><path class="cls-20" d="M319.79,355a1.39,1.39,0,0,1-.1-.26.77.77,0,0,1,.4-.9,1.19,1.19,0,0,1,1-.16c1.34.37,2.57,2.82,2.63,2.93a.22.22,0,0,1,0,.22.2.2,0,0,1-.2.1C322.53,356.86,320.36,356,319.79,355Zm3.26,1.36c-.46-.8-1.31-2-2.09-2.24a.71.71,0,0,0-.62.1c-.25.16-.25.3-.22.41.18.64,1.84,1.54,3,1.79Z" transform="translate(0 -53.98)"/><path class="cls-20" d="M266.25,367.66a3.78,3.78,0,0,1-2.21-.52,1.42,1.42,0,0,1-.58-1.09.65.65,0,0,1,.29-.62c1-.7,4.88,1.06,5.64,1.42a.22.22,0,0,1,.13.23.22.22,0,0,1-.17.19A15.31,15.31,0,0,1,266.25,367.66Zm-1.81-2a.78.78,0,0,0-.44.1.19.19,0,0,0-.09.21,1,1,0,0,0,.4.75c.66.51,2.23.57,4.26.2A14,14,0,0,0,264.44,365.71Z" transform="translate(0 -53.98)"/><path class="cls-20" d="M269.3,367.28l-.09,0c-1.28-.52-3.85-2.59-3.71-3.66,0-.23.19-.53.77-.6,2.24-.27,3.21,3.83,3.25,4a.22.22,0,0,1-.07.22A.24.24,0,0,1,269.3,367.28Zm-2.82-3.84h-.15c-.24,0-.37.1-.38.21-.09.62,1.7,2.25,3,3C268.65,365.64,267.84,363.44,266.48,363.44Z" transform="translate(0 -53.98)"/><path class="cls-4" d="M240.94,323.28h61.74a1.42,1.42,0,0,1,1.42,1.42v5.35a0,0,0,0,1,0,0H239.52a0,0,0,0,1,0,0V324.7A1.42,1.42,0,0,1,240.94,323.28Z"/><rect class="cls-4" x="240.07" y="347.22" width="64.57" height="6.77"/><rect class="cls-24" x="261.95" y="347.22" width="42.69" height="6.77"/><path class="cls-4" d="M268.17,384l-7.27,45.49a1.58,1.58,0,0,1-1.57,1.34h-3.55a1.59,1.59,0,0,1-1.57-1.84l7.19-45Z" transform="translate(0 -53.98)"/><polygon class="cls-24" points="268.17 330.05 267.62 333.51 260.85 333.51 261.4 330.05 268.17 330.05"/><path class="cls-4" d="M246.29,384,239,429.52a1.59,1.59,0,0,1-1.57,1.34H233.9a1.59,1.59,0,0,1-1.57-1.84l7.19-45Z" transform="translate(0 -53.98)"/><path class="cls-4" d="M311.28,429l-7.19-45h-6.77l7.27,45.49a1.58,1.58,0,0,0,1.57,1.34h3.55A1.59,1.59,0,0,0,311.28,429Z" transform="translate(0 -53.98)"/><polygon class="cls-24" points="304.64 333.51 304.09 330.05 297.32 330.05 297.87 333.51 304.64 333.51"/><path class="cls-4" d="M289.4,429l-7.19-45h-6.77l7.26,45.49a1.6,1.6,0,0,0,1.58,1.34h3.54A1.6,1.6,0,0,0,289.4,429Z" transform="translate(0 -53.98)"/><path class="cls-24" d="M289.4,429l-7.19-45h-6.77l7.26,45.49a1.6,1.6,0,0,0,1.58,1.34h3.54A1.6,1.6,0,0,0,289.4,429Z" transform="translate(0 -53.98)"/><path class="cls-24" d="M261.4,323.28h41.27a1.42,1.42,0,0,1,1.42,1.42v5.35a0,0,0,0,1,0,0H261.4a0,0,0,0,1,0,0v-6.77A0,0,0,0,1,261.4,323.28Z"/><polygon class="cls-9" points="71.86 370.7 80.85 354.21 48.71 326.04 46.19 370.7 71.86 370.7"/><polygon class="cls-10" points="71.86 370.7 80.85 354.21 48.71 326.04 46.19 370.7 71.86 370.7"/><path class="cls-9" d="M182.65,236.74c18-12.34,33.13-11.08,38.15-7.48s-10.92,30.95-10.92,30.95A43.16,43.16,0,0,1,182.65,236.74Z" transform="translate(0 -53.98)"/><path class="cls-7" d="M191.24,249.14c10.14-10,20.5-13.18,23.31-11.51s-6.21,20.9-6.21,20.9S196.17,260.28,191.24,249.14Z" transform="translate(0 -53.98)"/><path class="cls-7" d="M26,275.43l-1-.52a102.75,102.75,0,0,1,9.91-15.78l.91.69A101.71,101.71,0,0,0,26,275.43Z" transform="translate(0 -53.98)"/><path class="cls-7" d="M20.64,288.08l-1.09-.37c.86-2.5,1.83-5,2.88-7.43l1.06.46C22.44,283.14,21.48,285.61,20.64,288.08Z" transform="translate(0 -53.98)"/><path class="cls-11" d="M230.43,319.24c0,55.7-41.93,100.86-102.48,100.86S18.33,374.94,18.33,319.24,67.41,218.37,128,218.37,230.43,263.53,230.43,319.24Z" transform="translate(0 -53.98)"/><path class="cls-13" d="M113.34,409.41,109,418.59q4.76.77,9.65,1.14Z" transform="translate(0 -53.98)"/><polygon class="cls-9" points="106.7 376.88 119.31 354.21 78.97 339.46 73.81 376.88 106.7 376.88"/><polygon class="cls-9" points="165.45 376.88 154.52 354.21 192.92 339.46 195.47 376.88 165.45 376.88"/><path class="cls-7" d="M193,333.81c0,15.07-13.34,27.3-29.72,27.3s-29.67-12.23-29.67-27.3,13.28-27.3,29.67-27.3S193,318.74,193,333.81Z" transform="translate(0 -53.98)"/><ellipse class="cls-7" cx="153.47" cy="279.38" rx="5.04" ry="9.38"/><path class="cls-25" d="M117.44,282.89c1.44,4.41.11,9.22-3,10.74s-6.77-.84-8.21-5.25-.12-9.22,3-10.74S116,278.47,117.44,282.89Z" transform="translate(0 -53.98)"/><path class="cls-25" d="M195.57,283.09c-1.1,4.41.26,9.17,3,10.62s5.92-1,7-5.37-.26-9.17-3-10.62S196.67,278.68,195.57,283.09Z" transform="translate(0 -53.98)"/><ellipse class="cls-7" cx="180.27" cy="279.38" rx="5.04" ry="9.38"/><path class="cls-9" d="M95.91,235.81c-19.54-16.17-37-17.44-43.07-14.49S62.5,256,62.5,256,83.93,254.72,95.91,235.81Z" transform="translate(0 -53.98)"/><path class="cls-7" d="M84.91,247.46c-10.72-12.31-22.3-17.48-25.67-16.2s5.18,23.2,5.18,23.2S78.22,258.42,84.91,247.46Z" transform="translate(0 -53.98)"/><path class="cls-25" d="M135.35,227.15h16.51s-3.59-4-15.77-5.15a76.56,76.56,0,0,0-20.65,1.13S129,222.82,135.35,227.15Z" transform="translate(0 -53.98)"/></g><g class="cls-26"><path class="cls-4" d="M227.64,97.13c-6.76-9.12-5.17-17.07,0-22.8,6.45-7.18,17-7.12,24-3.45,11,5.73,13.36,30.85-5,34.4A148.88,148.88,0,0,1,227.64,97.13Z" transform="translate(0 -53.98)"/><path class="cls-4" d="M249.51,72.46c6.71-4,4.86-11.64,10.94-15.68,8.46-5.61,26.69-3.18,21,10.85s14.63,14.83,8.7,28.76-23,22.47-27.4,2.28c-3.29-15.14,10.68-34.64-.59-32.54-7,1.31-9.39,8.54-9.39,8.54Z" transform="translate(0 -53.98)"/><path class="cls-5" d="M232.78,131.86c-.92,2.55-1.92,4.86-3,7.25s-2.23,4.68-3.48,7A60.48,60.48,0,0,1,217,159.4a25.52,25.52,0,0,1-3.45,3,24.77,24.77,0,0,1-3.9,2.21,40.67,40.67,0,0,1-7.81,2.6,65.47,65.47,0,0,1-15.6,1.69,2.43,2.43,0,0,1-.56-4.79l.11,0a119.7,119.7,0,0,0,13.83-4.17,41.53,41.53,0,0,0,6.15-2.88,19.73,19.73,0,0,0,2.49-1.72,17.16,17.16,0,0,0,2.09-2.09,41.66,41.66,0,0,0,3.89-5.45c1.21-2,2.38-4,3.45-6.18,2.13-4.25,4.16-8.77,5.9-13.13l0-.07a4.88,4.88,0,0,1,9.12,3.48Z" transform="translate(0 -53.98)"/><path class="cls-6" d="M231.32,123.55c-9.27,1.07-14.37,15-14.37,15l9.49,13.37s11.26-12.72,12.2-18.39C239.61,127.59,238.18,122.76,231.32,123.55Z" transform="translate(0 -53.98)"/><path class="cls-7" d="M226.25,132.06c3.11-1.95,6.49-.88,9.38,2.75a9.7,9.7,0,0,1,1.17,3.38c-2.79,5.08-10.37,13.7-10.37,13.7l-4.34-6.12C221.76,142.15,224.24,133.31,226.25,132.06Z" transform="translate(0 -53.98)"/><path class="cls-8" d="M187.93,164.68,181,160.91,180.8,170s4.66,1,7.75-1.48Z" transform="translate(0 -53.98)"/><polygon class="cls-8" points="173.93 107.24 175.16 114.68 180.8 116.04 180.99 106.93 173.93 107.24"/><path class="cls-9" d="M209.16,144.83l-6.13-5-41.74,62.7,6.13,5c7,5.77,22.09-3.6,33.62-20.91S216.2,150.6,209.16,144.83Z" transform="translate(0 -53.98)"/><path class="cls-10" d="M209.16,144.83l-6.13-5-41.74,62.7,6.13,5c7,5.77,22.09-3.6,33.62-20.91S216.2,150.6,209.16,144.83Z" transform="translate(0 -53.98)"/><ellipse class="cls-11" cx="182.16" cy="171.16" rx="37.71" ry="16.38" transform="translate(-59.87 179.61) rotate(-57.68)"/><path class="cls-12" d="M174.43,181.44l5.63-8.46a8.91,8.91,0,0,1-.08-5.35,21,21,0,0,1,3-6.18,17.16,17.16,0,0,1,4.55-4.87c1.57-1,2.9-1.28,4-.74l1.36-2,1.19,1-1.36,2a5,5,0,0,1,.62,3.9,18.65,18.65,0,0,1-2.23,5.64l-2.52-1a6.81,6.81,0,0,0,1.16-4l-5.25,7.89a9.24,9.24,0,0,1,.42,5.6A23.61,23.61,0,0,1,177,186.14q-2.56,1.77-4.54,1l-1.36,2.05-1.19-1,1.29-1.94a5.68,5.68,0,0,1-.57-4.5,24.46,24.46,0,0,1,3-7.08l2.52,1.19a15.77,15.77,0,0,0-1.37,3.19A6.5,6.5,0,0,0,174.43,181.44Zm14.11-21.2a2.91,2.91,0,0,0-1.68.74,8,8,0,0,0-1.72,1.91,8.72,8.72,0,0,0-1.06,2.2,4.85,4.85,0,0,0-.19,2.14ZM175.43,182.7a2.39,2.39,0,0,0,1.94-.58,9,9,0,0,0,2.14-2.32,8.82,8.82,0,0,0,1.23-2.6,4.06,4.06,0,0,0-.07-2.37Z" transform="translate(0 -53.98)"/><path class="cls-13" d="M201.2,160.62c.83-5.5,0-9.91-2.61-12.07-5.73-4.7-18,2.92-27.38,17a61,61,0,0,0-8.66,19.06c1-6.44,4.16-14.38,9.23-22,9.39-14.1,21.65-21.73,27.38-17C202.26,148.16,202.82,153.77,201.2,160.62Z" transform="translate(0 -53.98)"/><polygon class="cls-14" points="282.54 315.81 273.12 316.71 268.32 294.75 277.74 293.85 282.54 315.81"/><polygon class="cls-15" points="335.03 302.24 326.28 305.67 317.83 284.85 326.59 281.41 335.03 302.24"/><path class="cls-4" d="M323.73,355.34l9.6-4.78a.77.77,0,0,1,1,.25l4.87,7.05a1.54,1.54,0,0,1-.61,2.21c-3.38,1.6-4.85,2.41-9.07,4.51-2.6,1.3-8.41,4.34-12,6.12S312,369,313.29,368c6-4.78,7.95-8.37,9.27-11.39A2.44,2.44,0,0,1,323.73,355.34Z" transform="translate(0 -53.98)"/><path class="cls-4" d="M271.27,365.79H282.6a.94.94,0,0,1,.9.69l2.46,9a1.4,1.4,0,0,1-1.38,1.79c-4-.07-5.86,0-10.84,0H258.53c-4.14,0-5-4.19-3.34-4.57,7.68-1.7,12.11-4,14.48-6.28A2.34,2.34,0,0,1,271.27,365.79Z" transform="translate(0 -53.98)"/><polygon class="cls-7" points="268.32 294.76 270.79 306.08 280.42 306.08 277.75 293.86 268.32 294.76"/><polygon class="cls-7" points="326.59 281.42 317.83 284.85 322.19 295.58 330.95 292.15 326.59 281.42"/><path class="cls-6" d="M260.09,114.08c7.49-.87,12.4,2.7,12.68,10.18,1,26.38,3.9,32.46,8.31,46.09l-37.37,10.41C230.42,152,225.78,138.42,224.27,132a7,7,0,0,1,3.61-7.57A86.82,86.82,0,0,1,260.09,114.08Z" transform="translate(0 -53.98)"/><path class="cls-16" d="M248.72,96.39c.45,5.76,1.94,15.77,6.78,18.35,0,0-.71,3.55-13.09,15.42-7.64-6.45-3.74-10.77-3.74-10.77,5.69-3.15,4.35-7.25,2.11-11.2Z" transform="translate(0 -53.98)"/><path class="cls-7" d="M247.86,97.68a23.94,23.94,0,0,1,.34,10c-.43,2.28-2.88,3.95-5.61,4.93a15.29,15.29,0,0,0-1.81-4.42Z" transform="translate(0 -53.98)"/><path class="cls-17" d="M250.92,85.52c1.83,9.3,2.81,13.2-.59,19.11-5.1,8.89-16.92,9.11-21.5.54-4.12-7.71-6.43-21.62,1.58-27.61A12.93,12.93,0,0,1,250.92,85.52Z" transform="translate(0 -53.98)"/><path class="cls-18" d="M255.78,91.18a6.93,6.93,0,0,1-1.28,5.14c-1.46,1.94-3.66,1-4.48-1.16-.75-1.93-.89-5.27,1.17-6.45A3.11,3.11,0,0,1,255.78,91.18Z" transform="translate(0 -53.98)"/><path class="cls-4" d="M242.76,80.59c-.34,3.57,2.51,9.64,7.85,11,5.55-6.37,1.9-15.1-3.2-15.29S242.76,80.59,242.76,80.59Z" transform="translate(0 -53.98)"/><path class="cls-4" d="M235.3,70.9c-8.19.37-17,4-13.92,16.83,7.14-1.49,27-3.71,28.52-8.81C247.89,72.38,240.65,70.65,235.3,70.9Z" transform="translate(0 -53.98)"/><path class="cls-11" d="M243.71,180.76s-2.16,75.49,3.89,104c6.29,29.64,20.51,72,20.51,72l13.35-.86s-8.62-55.39-11.27-78.24c-3.66-31.51.89-104.52.89-104.52Z" transform="translate(0 -53.98)"/><path class="cls-19" d="M262.52,204.37c.6-6.85,5.76-5.54,6.92,3.73-.51,14.57-.87,31.52-.58,46.34C263.29,243.57,261.13,219.94,262.52,204.37Z" transform="translate(0 -53.98)"/><polygon class="cls-4" points="283.16 302.76 267.08 303.85 264.85 296.31 282.24 294.47 283.16 302.76"/><path class="cls-11" d="M256.89,177.09s11.38,63.28,26.83,97.33c12.48,27.5,35.09,71.81,35.09,71.81l12.26-4.58S311.89,291.35,305,272c-17.27-48.25-7.87-77.52-23.88-101.64Z" transform="translate(0 -53.98)"/><polygon class="cls-4" points="332.52 288.83 318.36 293.75 314.33 286.51 331.17 282.33 332.52 288.83"/><path class="cls-4" d="M281,168l2.62,2.88c.2.22,0,.57-.47.69L244,182.48c-.34.1-.66,0-.74-.2L242,179c-.09-.22.15-.5.52-.6l37.84-10.54A.71.71,0,0,1,281,168Z" transform="translate(0 -53.98)"/><path class="cls-20" d="M277.12,173.65l1-.28c.2-.06.32-.21.28-.33l-1.69-4.21c-.05-.13-.25-.18-.46-.12l-1,.28c-.2,0-.33.2-.28.32l1.69,4.22A.37.37,0,0,0,277.12,173.65Z" transform="translate(0 -53.98)"/><path class="cls-20" d="M246.94,182.05l1-.28c.21-.06.33-.2.28-.33l-1.68-4.21c-.05-.12-.26-.18-.46-.12l-1,.28c-.21.06-.33.2-.28.33l1.68,4.21C246.53,182.05,246.74,182.11,246.94,182.05Z" transform="translate(0 -53.98)"/><path class="cls-20" d="M262,177.85l1-.28c.2-.06.32-.2.27-.33L261.64,173c-.05-.12-.26-.18-.46-.12l-1,.28c-.2.06-.33.2-.28.33l1.69,4.21A.37.37,0,0,0,262,177.85Z" transform="translate(0 -53.98)"/><path class="cls-21" d="M268.17,131.73c-2.9,6-5.94,11.92-9.13,17.79-1.59,2.94-3.19,5.87-4.89,8.77s-3.4,5.8-5.37,8.71c-.46.72-1,1.48-1.57,2.22l-.2.28-.11.14-.17.21a7.71,7.71,0,0,1-.7.78,12.26,12.26,0,0,1-1.37,1.21,24.27,24.27,0,0,1-5.24,2.9,65.75,65.75,0,0,1-10,3.17,138.61,138.61,0,0,1-20,3.12l-.77-4.77c3.13-.83,6.32-1.7,9.45-2.61s6.24-1.88,9.27-2.94a69.72,69.72,0,0,0,8.63-3.54,17.59,17.59,0,0,0,3.31-2.12,4,4,0,0,0,.46-.46,1.1,1.1,0,0,0,.12-.16l.24-.37c.4-.63.8-1.21,1.2-1.91,1.59-2.67,3.17-5.54,4.69-8.42l4.55-8.72,8.94-17.6Z" transform="translate(0 -53.98)"/><path class="cls-22" d="M211.6,176.32,205,173.78l.56,9.33s5.19,0,7.59-3.19Z" transform="translate(0 -53.98)"/><polygon class="cls-23" points="199.79 120.08 198.38 126.94 205.55 129.13 204.99 119.8 199.79 120.08"/><path class="cls-6" d="M260,118.9c-3.69,1.7-8,17-8,17l16,1.86s3.09-7.46,2.47-11.28C269.52,120.36,264.25,117,260,118.9Z" transform="translate(0 -53.98)"/><path class="cls-20" d="M319,358.08a1.66,1.66,0,0,1-.15-.33.78.78,0,0,1,.12-.77c.77-1,4.2-.56,4.59-.52a.22.22,0,0,1,.19.16.22.22,0,0,1-.07.24c-1,.81-2.79,2.13-4,1.8A1.22,1.22,0,0,1,319,358.08Zm4-1.22c-1.38-.12-3.23-.1-3.64.4a.33.33,0,0,0,0,.34.86.86,0,0,0,.56.62C320.44,358.4,321.59,357.89,322.93,356.86Z" transform="translate(0 -53.98)"/><path class="cls-20" d="M319.79,355a1.39,1.39,0,0,1-.1-.26.77.77,0,0,1,.4-.9,1.19,1.19,0,0,1,1-.16c1.34.37,2.57,2.82,2.63,2.93a.22.22,0,0,1,0,.22.2.2,0,0,1-.2.1C322.53,356.86,320.36,356,319.79,355Zm3.26,1.36c-.46-.8-1.31-2-2.09-2.24a.71.71,0,0,0-.62.1c-.25.16-.25.3-.22.41.18.64,1.84,1.54,3,1.79Z" transform="translate(0 -53.98)"/><path class="cls-20" d="M266.25,367.66a3.78,3.78,0,0,1-2.21-.52,1.42,1.42,0,0,1-.58-1.09.65.65,0,0,1,.29-.62c1-.7,4.88,1.06,5.64,1.42a.22.22,0,0,1,.13.23.22.22,0,0,1-.17.19A15.31,15.31,0,0,1,266.25,367.66Zm-1.81-2a.78.78,0,0,0-.44.1.19.19,0,0,0-.09.21,1,1,0,0,0,.4.75c.66.51,2.23.57,4.26.2A14,14,0,0,0,264.44,365.71Z" transform="translate(0 -53.98)"/><path class="cls-20" d="M269.3,367.28l-.09,0c-1.28-.52-3.85-2.59-3.71-3.66,0-.23.19-.53.77-.6,2.24-.27,3.21,3.83,3.25,4a.22.22,0,0,1-.07.22A.24.24,0,0,1,269.3,367.28Zm-2.82-3.84h-.15c-.24,0-.37.1-.38.21-.09.62,1.7,2.25,3,3C268.65,365.64,267.84,363.44,266.48,363.44Z" transform="translate(0 -53.98)"/><path class="cls-4" d="M240.94,323.28h61.74a1.42,1.42,0,0,1,1.42,1.42v5.35a0,0,0,0,1,0,0H239.52a0,0,0,0,1,0,0V324.7A1.42,1.42,0,0,1,240.94,323.28Z"/><rect class="cls-4" x="240.07" y="347.22" width="64.57" height="6.77"/><rect class="cls-24" x="261.95" y="347.22" width="42.69" height="6.77"/><path class="cls-4" d="M268.17,384l-7.27,45.49a1.58,1.58,0,0,1-1.57,1.34h-3.55a1.59,1.59,0,0,1-1.57-1.84l7.19-45Z" transform="translate(0 -53.98)"/><polygon class="cls-24" points="268.17 330.05 267.62 333.51 260.85 333.51 261.4 330.05 268.17 330.05"/><path class="cls-4" d="M246.29,384,239,429.52a1.59,1.59,0,0,1-1.57,1.34H233.9a1.59,1.59,0,0,1-1.57-1.84l7.19-45Z" transform="translate(0 -53.98)"/><path class="cls-4" d="M311.28,429l-7.19-45h-6.77l7.27,45.49a1.58,1.58,0,0,0,1.57,1.34h3.55A1.59,1.59,0,0,0,311.28,429Z" transform="translate(0 -53.98)"/><polygon class="cls-24" points="304.64 333.51 304.09 330.05 297.32 330.05 297.87 333.51 304.64 333.51"/><path class="cls-4" d="M289.4,429l-7.19-45h-6.77l7.26,45.49a1.6,1.6,0,0,0,1.58,1.34h3.54A1.6,1.6,0,0,0,289.4,429Z" transform="translate(0 -53.98)"/><path class="cls-24" d="M289.4,429l-7.19-45h-6.77l7.26,45.49a1.6,1.6,0,0,0,1.58,1.34h3.54A1.6,1.6,0,0,0,289.4,429Z" transform="translate(0 -53.98)"/><path class="cls-24" d="M261.4,323.28h41.27a1.42,1.42,0,0,1,1.42,1.42v5.35a0,0,0,0,1,0,0H261.4a0,0,0,0,1,0,0v-6.77A0,0,0,0,1,261.4,323.28Z"/><polygon class="cls-9" points="71.86 370.7 80.85 354.21 48.71 326.04 46.19 370.7 71.86 370.7"/><polygon class="cls-10" points="71.86 370.7 80.85 354.21 48.71 326.04 46.19 370.7 71.86 370.7"/><path class="cls-9" d="M182.65,236.74c18-12.34,33.13-11.08,38.15-7.48s-10.92,30.95-10.92,30.95A43.16,43.16,0,0,1,182.65,236.74Z" transform="translate(0 -53.98)"/><path class="cls-7" d="M191.24,249.14c10.14-10,20.5-13.18,23.31-11.51s-6.21,20.9-6.21,20.9S196.17,260.28,191.24,249.14Z" transform="translate(0 -53.98)"/><path class="cls-7" d="M26,275.43l-1-.52a102.75,102.75,0,0,1,9.91-15.78l.91.69A101.71,101.71,0,0,0,26,275.43Z" transform="translate(0 -53.98)"/><path class="cls-7" d="M20.64,288.08l-1.09-.37c.86-2.5,1.83-5,2.88-7.43l1.06.46C22.44,283.14,21.48,285.61,20.64,288.08Z" transform="translate(0 -53.98)"/><path class="cls-11" d="M230.43,319.24c0,55.7-41.93,100.86-102.48,100.86S18.33,374.94,18.33,319.24,67.41,218.37,128,218.37,230.43,263.53,230.43,319.24Z" transform="translate(0 -53.98)"/><path class="cls-13" d="M113.34,409.41,109,418.59q4.76.77,9.65,1.14Z" transform="translate(0 -53.98)"/><polygon class="cls-9" points="106.7 376.88 119.31 354.21 78.97 339.46 73.81 376.88 106.7 376.88"/><polygon class="cls-9" points="165.45 376.88 154.52 354.21 192.92 339.46 195.47 376.88 165.45 376.88"/><path class="cls-7" d="M193,333.81c0,15.07-13.34,27.3-29.72,27.3s-29.67-12.23-29.67-27.3,13.28-27.3,29.67-27.3S193,318.74,193,333.81Z" transform="translate(0 -53.98)"/><ellipse class="cls-7" cx="153.47" cy="279.38" rx="5.04" ry="9.38"/><path class="cls-25" d="M117.44,282.89c1.44,4.41.11,9.22-3,10.74s-6.77-.84-8.21-5.25-.12-9.22,3-10.74S116,278.47,117.44,282.89Z" transform="translate(0 -53.98)"/><path class="cls-25" d="M195.57,283.09c-1.1,4.41.26,9.17,3,10.62s5.92-1,7-5.37-.26-9.17-3-10.62S196.67,278.68,195.57,283.09Z" transform="translate(0 -53.98)"/><ellipse class="cls-7" cx="180.27" cy="279.38" rx="5.04" ry="9.38"/><path class="cls-9" d="M95.91,235.81c-19.54-16.17-37-17.44-43.07-14.49S62.5,256,62.5,256,83.93,254.72,95.91,235.81Z" transform="translate(0 -53.98)"/><path class="cls-7" d="M84.91,247.46c-10.72-12.31-22.3-17.48-25.67-16.2s5.18,23.2,5.18,23.2S78.22,258.42,84.91,247.46Z" transform="translate(0 -53.98)"/><path class="cls-25" d="M135.35,227.15h16.51s-3.59-4-15.77-5.15a76.56,76.56,0,0,0-20.65,1.13S129,222.82,135.35,227.15Z" transform="translate(0 -53.98)"/></g></g></g></svg>