<svg xmlns="http://www.w3.org/2000/svg" xmlns:xlink="http://www.w3.org/1999/xlink" viewBox="0 0 418.53 435.26"><defs><style>.cls-1,.cls-12,.cls-15,.cls-25,.cls-32,.cls-47,.cls-6,.cls-9{fill:none;}.cls-2{fill:#23bec4;opacity:0.3;}.cls-3{clip-path:url(#clip-path);}.cls-4{fill:#9cbaba;}.cls-5{fill:#243433;}.cls-6{stroke:#f9f9fa;}.cls-12,.cls-15,.cls-25,.cls-47,.cls-6,.cls-9{stroke-linecap:round;stroke-linejoin:round;}.cls-7{fill:#263238;}.cls-8{fill:#4f6066;}.cls-9{stroke:#3c4b78;}.cls-10{fill:url(#linear-gradient);}.cls-11,.cls-17,.cls-19,.cls-20,.cls-36{fill:#ab4138;}.cls-11{opacity:0.44;}.cls-12{stroke:#d75246;}.cls-13{fill:#00918c;}.cls-14{fill:#3c4b78;}.cls-15{stroke:#017f7b;}.cls-16{fill:url(#linear-gradient-2);}.cls-17{opacity:0.35;}.cls-18{fill:url(#linear-gradient-3);}.cls-19{opacity:0.45;}.cls-21{fill:url(#linear-gradient-4);}.cls-22{fill:#f9f9fa;}.cls-23{fill:#4e62a5;}.cls-24{fill:#f9db80;}.cls-25{stroke:#769494;}.cls-26{fill:#99d9e5;}.cls-27{fill:url(#linear-gradient-5);}.cls-28{fill:url(#linear-gradient-6);}.cls-29{fill:url(#linear-gradient-7);}.cls-30{fill:#237575;}.cls-31,.cls-33{fill:#25bec3;}.cls-32,.cls-33{stroke:#237575;stroke-miterlimit:10;}.cls-34{fill:url(#linear-gradient-8);}.cls-35{fill:url(#linear-gradient-9);}.cls-36{opacity:0.46;}.cls-37{fill:url(#linear-gradient-10);}.cls-38{fill:url(#linear-gradient-11);}.cls-39{fill:url(#linear-gradient-12);}.cls-40{fill:url(#linear-gradient-13);}.cls-41{fill:url(#linear-gradient-14);}.cls-42{fill:url(#linear-gradient-15);}.cls-43{fill:url(#linear-gradient-16);}.cls-44{fill:#e78c60;}.cls-45{fill:#d75246;}.cls-46{fill:#769494;}.cls-47{stroke:#243433;}.cls-48{fill:url(#linear-gradient-17);}.cls-49{fill:url(#linear-gradient-18);}.cls-50{clip-path:url(#clip-path-2);}</style><clipPath id="clip-path" transform="translate(-30.07 -29.27)"><circle class="cls-1" cx="242.63" cy="200.35" r="172.3"/></clipPath><linearGradient id="linear-gradient" x1="283.44" y1="127.54" x2="338.28" y2="127.54" gradientUnits="userSpaceOnUse"><stop offset="0" stop-color="#f9baba"/><stop offset="1" stop-color="#f5928f"/></linearGradient><linearGradient id="linear-gradient-2" x1="392.05" y1="260.95" x2="441.62" y2="260.95" xlink:href="#linear-gradient"/><linearGradient id="linear-gradient-3" x1="359.12" y1="154.83" x2="372.03" y2="154.83" xlink:href="#linear-gradient"/><linearGradient id="linear-gradient-4" x1="357.24" y1="140.12" x2="376.54" y2="140.12" xlink:href="#linear-gradient"/><linearGradient id="linear-gradient-5" x1="209.15" y1="120.23" x2="228.25" y2="120.23" xlink:href="#linear-gradient"/><linearGradient id="linear-gradient-6" x1="213.25" y1="120.31" x2="217.82" y2="120.31" xlink:href="#linear-gradient"/><linearGradient id="linear-gradient-7" x1="185.24" y1="87.54" x2="194.29" y2="87.54" xlink:href="#linear-gradient"/><linearGradient id="linear-gradient-8" x1="147.57" y1="140.4" x2="152.32" y2="140.4" xlink:href="#linear-gradient"/><linearGradient id="linear-gradient-9" x1="126.32" y1="156.5" x2="143.32" y2="156.5" xlink:href="#linear-gradient"/><linearGradient id="linear-gradient-10" x1="122.14" y1="139.29" x2="149.81" y2="139.29" xlink:href="#linear-gradient"/><linearGradient id="linear-gradient-11" x1="70.53" y1="78.72" x2="88.52" y2="78.72" xlink:href="#linear-gradient"/><linearGradient id="linear-gradient-12" x1="77.4" y1="79.45" x2="83.2" y2="79.45" xlink:href="#linear-gradient"/><linearGradient id="linear-gradient-13" x1="42.58" y1="45.48" x2="52" y2="45.48" xlink:href="#linear-gradient"/><linearGradient id="linear-gradient-14" x1="192.62" y1="184.02" x2="212.03" y2="184.02" xlink:href="#linear-gradient"/><linearGradient id="linear-gradient-15" x1="309.55" y1="160.44" x2="316.82" y2="160.44" xlink:href="#linear-gradient"/><linearGradient id="linear-gradient-16" x1="306.64" y1="164.77" x2="325.87" y2="164.77" xlink:href="#linear-gradient"/><linearGradient id="linear-gradient-17" x1="257.11" y1="198.6" x2="272.01" y2="198.6" xlink:href="#linear-gradient"/><linearGradient id="linear-gradient-18" x1="256.24" y1="184.38" x2="280.68" y2="184.38" xlink:href="#linear-gradient"/><clipPath id="clip-path-2" transform="translate(-30.07 -29.27)"><path class="cls-1" d="M48.48,52.79,38,86.74s-10.45,6.53-11.1,30-51.26,24.93-12.08,56.27,19.26,31.87,92.39,43S213,185.17,279.38,241.53C343.61,296.06,443.92,255,389.73,123.75s214.4,38.08,27.66-43.54S233.92-4.67,214.33,2.52c0,0-34.61,5.87-42.44,7.83S105.29,28,105.29,28L65.46,48.22Z"/></clipPath></defs><title>Asset 4</title><g id="Layer_2" data-name="Layer 2"><g id="Layer_1-2" data-name="Layer 1"><circle class="cls-2" cx="212.37" cy="172.3" r="172.3"/><g class="cls-3"><path class="cls-4" d="M431.69,409.8l8.21,28.73s6,7.44,8.69,14.43h-46.5l8-11.88-6.27-31.28Z" transform="translate(-30.07 -29.27)"/><path class="cls-5" d="M410.11,441.08l-8,11.88h46.5c-2.73-7-8.69-14.43-8.69-14.43C417.3,432.24,410.11,441.08,410.11,441.08Z" transform="translate(-30.07 -29.27)"/><path class="cls-4" d="M402.09,453s7-12.4,24.65-10.21S448.59,453,448.59,453Z" transform="translate(-30.07 -29.27)"/><line class="cls-6" x1="382.36" y1="395.1" x2="384.24" y2="409"/><line class="cls-6" x1="391.61" y1="395.1" x2="393.6" y2="407.03"/><line class="cls-6" x1="400.86" y1="395.1" x2="402.73" y2="407.67"/><path class="cls-4" d="M332.26,405.38l2,31.51s-18.33,8.15-21.33,15.82h49.88V405.38Z" transform="translate(-30.07 -29.27)"/><path class="cls-5" d="M362.81,441.65c-5.38,4.36-11.51,2.27-15.55,1.22-2.68-.69-8.62-4.31-13.12-5.93-1.49.68-18.35,8.45-21.21,15.77h49.88Z" transform="translate(-30.07 -29.27)"/><path class="cls-4" d="M330.93,449.69c-.47-3.25-5-5.78-7.55-6.94-4.55,2.88-9.09,6.47-10.45,10h49.88v-3Z" transform="translate(-30.07 -29.27)"/><line class="cls-6" x1="307.8" y1="395.1" x2="307.8" y2="409.6"/><line class="cls-6" x1="317.61" y1="395.1" x2="317.61" y2="413.71"/><line class="cls-6" x1="327.28" y1="395.1" x2="326.28" y2="414.98"/><path class="cls-7" d="M331.43,247s-9.89,89.34-6.86,117.34,4.1,60,4.1,60h41.26s3-34.34-2-60.8l2-40.87,30,101.67h40.33s4.17-35-13.33-65c-7.52-12.9-4.67-68.84-25.34-112.34Z" transform="translate(-30.07 -29.27)"/><path class="cls-8" d="M337.87,354.38c0-10.31-5.59-18.67-12.47-18.67a10,10,0,0,0-1.1.08c-.44,11.67-.46,21.89.27,28.59.31,2.86.59,5.76.86,8.66C332.3,373,337.87,364.67,337.87,354.38Z" transform="translate(-30.07 -29.27)"/><path class="cls-9" d="M369.93,322.71s-23-20.11-14.52-75.67" transform="translate(-30.07 -29.27)"/><ellipse class="cls-8" cx="398.17" cy="355.1" rx="10.92" ry="18" transform="translate(-89.43 51.42) rotate(-10.77)"/><path class="cls-9" d="M347.66,247s-8.46,40.91,7.89,45.11" transform="translate(-30.07 -29.27)"/><polyline class="cls-9" points="358.34 217.77 368.53 257.46 385.51 262.88"/><path class="cls-9" d="M432.8,424.38s-4.22-41.86-12.89-64.53-11.38-70-11.38-70" transform="translate(-30.07 -29.27)"/><path class="cls-9" d="M361.73,424.38,356.61,365a32.11,32.11,0,0,1,.06-6.2l5.06-47.95" transform="translate(-30.07 -29.27)"/><path class="cls-10" d="M335,92.29c-1.35-.13-2.52.67-3.74.49,1.34-2,3.05-4.22,3.56-6.7a16.9,16.9,0,0,0,0-6.38c-.11-.6-.8-2.8-1.79-2.35-.82.38-.82,3.74-.81,4.51a20.74,20.74,0,0,0-.87-4.57c-.34-.8-.87-2.09-1.72-2.48-1.66-.75-.92,3.16-.65,4-.2-.72-1.45-3.94-2.47-2.06-.89,1.62.52,4.16.07,5.84-.38-1.12-1.53-4.79-3.23-4.59-1.24.15-.41,2.37-.2,3.19s.72,2.39-.09,3.21c-.41.42-.93.65-1.34,1.11a14.41,14.41,0,0,0-1.25,1.66,8.9,8.9,0,0,0-1.67,4.66v0a53.55,53.55,0,0,0-30,31.62c-8.45,24.25-6.95,31.27,3.8,38.76,4.84,3.38,14,10.86,22.59,18.06,2.82-10.17,6.75-24.37,9-32.62L312.43,141s7.31-33,13.35-42.22c1.19-.46,2.42-.55,3.74-1,1.84-.63,3-2.54,4.93-2.89.67-.13,3.65.36,3.82-.65C338.47,93,335.79,92.36,335,92.29Z" transform="translate(-30.07 -29.27)"/><path class="cls-11" d="M312.43,141s-15,7-24.93,16.93a29.9,29.9,0,0,0,5.18,4.4c4.84,3.38,14,10.86,22.59,18.06,2.82-10.17,6.75-24.37,9-32.62L312.43,141Z" transform="translate(-30.07 -29.27)"/><path class="cls-12" d="M321.09,94s1.69-5.86,10.18-1.26" transform="translate(-30.07 -29.27)"/><path class="cls-12" d="M323.1,84.44a11.17,11.17,0,0,1,7.49,1.94" transform="translate(-30.07 -29.27)"/><path class="cls-13" d="M413.18,272.79s-1.93-5.37-4.41-12.48l-3.13,13.43C411.42,270.51,413.18,272.79,413.18,272.79Z" transform="translate(-30.07 -29.27)"/><path class="cls-13" d="M406.4,253.46c-4.07-11.83-8.47-25.08-8.47-27.12a81.55,81.55,0,0,1,.8-9.32l9.45,23.27,31.37-10.79c-2.76-7.09-7.67-19.36-13.37-31.06-7.75-15.9-19.25-29.73-40.75-32.67L378.77,164l.78-4.63-25-2-.68,5L312.43,141c-14.06,15.56-11.56,22.81-18.93,31.56,10.49,8.79,35.43,22,35.43,22s-1.75,28.13-1.75,48.21a54.78,54.78,0,0,1-5.19,22s15.56,11.75,30.25,14.25l9.65-12.25,3.54,17.5s20,6.75,32.25-4.5c1.46-1.34,2.79-2.46,4-3.39a34.69,34.69,0,0,1,3.95-2.66c5.78-3.23,7.54-.95,7.54-.95s-1.93-5.37-4.41-12.48Z" transform="translate(-30.07 -29.27)"/><path class="cls-14" d="M354.51,157.33s5.12,4.93,11.39,5.91c0,0,1.52.8,13.65-3.91Z" transform="translate(-30.07 -29.27)"/><path class="cls-15" d="M361.89,266.79s-7.7-47.72,0-82.06c0,0,3.35-13.66,3.69-21.51" transform="translate(-30.07 -29.27)"/><path class="cls-15" d="M328.93,194.54s1.75-16.52,8.25-27" transform="translate(-30.07 -29.27)"/><line class="cls-15" x1="368.66" y1="187.75" x2="371.61" y2="162.52"/><line class="cls-15" x1="273.13" y1="150.24" x2="290.26" y2="116.22"/><line class="cls-15" x1="374.29" y1="201.6" x2="404.46" y2="187.75"/><rect class="cls-15" x="370.74" y="193.02" width="21.31" height="5.5" transform="translate(-14.98 -56.23) rotate(4.13)"/><polyline class="cls-15" points="323.76 133.03 328.4 140.08 335.48 134.58 340.68 141.58 348.7 134.69"/><path class="cls-16" d="M440.13,232.3l-1.31-2.55-26.33,9.08.94,1.52L404.18,280l0,0c-1.11,2.13-3.59,2.75-5.78,3.21a5.21,5.21,0,0,0-3.05,1.46c-1.36,1.43-1.23,3.43-2.28,5-.52.78-2.18,2.92.17,2.32,1.17-.3,2.39-1.84,3.16-2.71,1.6-1.79,3.16-2.12,5.44-1.68s4.46,1.07,6.66,1.63c1.49.39,2.87,1.19,4.37,1.49a29.78,29.78,0,0,0,1.83-5.52c1-.66,20.72-13.7,26.64-44.08A13.7,13.7,0,0,0,440.13,232.3Z" transform="translate(-30.07 -29.27)"/><path class="cls-17" d="M440.13,232.3l-1.31-2.55-26.33,9.08.89,1.44,27.72-5.47A13.34,13.34,0,0,0,440.13,232.3Z" transform="translate(-30.07 -29.27)"/><path class="cls-18" d="M360.89,146.31l-1.77,14.39a16.89,16.89,0,0,0,6.46,2.52c2.05.3,2.69.12,6.45-1.21V147.36Z" transform="translate(-30.07 -29.27)"/><path class="cls-19" d="M360.89,146.31l-.77,6.27C362.48,157.78,372,158,372,158V147.36Z" transform="translate(-30.07 -29.27)"/><path class="cls-20" d="M360.75,136.6s-4.05-8-6.4-3.5c-2,3.71,1.95,7.76,6,6.93Z" transform="translate(-30.07 -29.27)"/><path class="cls-20" d="M372.39,137.27s5.59-7,7-2.11c1.15,4-3.49,7.2-7.34,5.55Z" transform="translate(-30.07 -29.27)"/><path class="cls-5" d="M357.78,138.29c-1.46-1.08-2-3.38-2.22-5.08a19.6,19.6,0,0,1-.25-2.5c0-.68.56-1.62.62-2.24-2.12-.27-1.44-3.41-.69-4.6a9.47,9.47,0,0,1,6.26-4.43,13.4,13.4,0,0,1,4.5.27,1.68,1.68,0,0,1-.81-1.56c.4,1.35,3.91,1.22,5,1.43a6,6,0,0,1,4.51,3.51c1.25-.93,4,.35,4.47,1.52.83,1.94.14,4.13-.28,6.1-.5,2.29-.13,5.54-1.49,7.5-1.56,2.26-6.43,1.19-8.61.92a47.82,47.82,0,0,0-7.9-.84C360.1,138.32,358.7,138.18,357.78,138.29Z" transform="translate(-30.07 -29.27)"/><path class="cls-21" d="M376.54,131.56a1.72,1.72,0,0,0-2-1.78c-.93.13-1.9.34-2.61.47-.47.09-1.2.64-1.57.67-.75.05-1.79-.73-2.53-.86a3.54,3.54,0,0,1,.42.85c-2.81-.65-5.83-1.36-8.69-2a1.74,1.74,0,0,0-2.11,1.56c-.15,2.13-.28,5.11-.26,5.48.82,12.54,1.22,14.12,8.7,15.32s9.5-7.47,9.89-11.27c.09-.83.12-1.89.4-3.4a6.64,6.64,0,0,0,.1-1C376.34,134.66,376.49,132.93,376.54,131.56Z" transform="translate(-30.07 -29.27)"/><path class="cls-5" d="M357.19,137.46c.27.28.09,1.85,0,2.41a15.93,15.93,0,0,1-1,3.09c-.87,2.38-1,4.95.59,7.12,2.33,3.25,7.7,3.92,11.33,3.19,1.76-.35,3.88-.87,5.18-2.16a9.39,9.39,0,0,0,2.23-4.5,17.51,17.51,0,0,0,.43-7.87c-.7,1.44-1,4.84-3,5.22s-2.13-1.5-3.27-2.32c-1.3-.94-3.62-1-5.14-1a5.22,5.22,0,0,0-3.25,1c-.6.45-1.09,1.07-1.88.72C357.89,141.66,358,138.9,357.19,137.46Z" transform="translate(-30.07 -29.27)"/><path class="cls-22" d="M363.52,145.26a3.56,3.56,0,0,0,2.69.45,6,6,0,0,0,2.15-1.26c-.16,1.36-.52,2.65-2.08,3a3.34,3.34,0,0,1-2.82-.66A2.87,2.87,0,0,0,363.52,145.26Z" transform="translate(-30.07 -29.27)"/><path class="cls-23" d="M55.07,430.38l-5.25,14.75s-20,6.25-19.75,13.5,40.5-1.25,40.5-1.25l8.5-27Z" transform="translate(-30.07 -29.27)"/><path class="cls-24" d="M59.49,448.38c3.77,3.58,8.54-1.27,14.31-1.25l5.27-16.75h-24l-5.25,14.75S54.57,443.71,59.49,448.38Z" transform="translate(-30.07 -29.27)"/><path class="cls-25" d="M38.15,449.7s6.34-.41,10.17,4.68" transform="translate(-30.07 -29.27)"/><path class="cls-25" d="M41.88,448.2s4.92-2.87,9.11,4.51" transform="translate(-30.07 -29.27)"/><path class="cls-25" d="M46.43,446.32s5.72-3.19,7.31,5.06" transform="translate(-30.07 -29.27)"/><path class="cls-23" d="M179.25,429.3l1.34,15.6S198.35,456,196.27,463s-38.86-11.48-38.86-11.48L156,423.21Z" transform="translate(-30.07 -29.27)"/><path class="cls-24" d="M170.41,445.59c-4.56,2.51-7.94-3.39-13.52-4.84L156,423.21l23.21,6.09,1.34,15.6S176.35,442.33,170.41,445.59Z" transform="translate(-30.07 -29.27)"/><path class="cls-25" d="M190.71,452.28s-6-2-11,2" transform="translate(-30.07 -29.27)"/><path class="cls-25" d="M187.49,449.88s-4-4-10,2.06" transform="translate(-30.07 -29.27)"/><path class="cls-25" d="M183.56,446.91s-4.72-4.54-8.35,3" transform="translate(-30.07 -29.27)"/><path class="cls-7" d="M100.82,229.38s-6.5,26.5-23.5,69-27,138-27,138H88l47.83-115,16.91,112.5,31.43-2.5s18.08-90.5,5.16-138.5c-9.15-34-17-59-17-59Z" transform="translate(-30.07 -29.27)"/><path class="cls-25" d="M135.82,321.38s10.63-37.22,9.46-74.44" transform="translate(-30.07 -29.27)"/><line class="cls-25" x1="21.6" y1="395.4" x2="62.79" y2="395.4"/><line class="cls-25" x1="120.66" y1="391.27" x2="155.58" y2="393.94"/><path class="cls-25" d="M90.83,262s17.63-1.08,23.88-21.85" transform="translate(-30.07 -29.27)"/><path class="cls-25" d="M164.43,244s2,17,16.69,19.44" transform="translate(-30.07 -29.27)"/><path class="cls-25" d="M143.85,278.53s7.43-1.15,8.27-5.82.69-26.27.69-26.27" transform="translate(-30.07 -29.27)"/><path class="cls-26" d="M99.88,232.93s18.63,11.28,38.28,13.61,36.09-6.39,36.09-6.39l-11.18-73s-16.19-6.27-27.35-8.5-27.9-2.13-27.9-2.13S103.1,218.73,99.88,232.93Z" transform="translate(-30.07 -29.27)"/><path class="cls-27" d="M220.11,131.18c.34-2.13.73-5.05,1.8-6.91a6.67,6.67,0,0,1,1.8-1.75,8.29,8.29,0,0,0,2.16-3.43c.52-1.3.93-2.62,1.51-3.89a7.48,7.48,0,0,0,.87-2.11c0-1.08-.94-1-1.58-.35-.91.92-.94,2.71-1.91,3.5-.28.22-.83.5-1.11.17s.4-1.29.59-1.66c.27-.54,3-5.72.4-5.22-1,.2-1.58,2.65-1.91,3.5s-.78,3.09-1.85,3.15c-1.85.12,2-6.75-.23-7.59-1.55-.58-1.88,2.32-2.12,3.23-.15.56-.49,3.27-1.24,3.3-1.09,0,.54-5.71-.93-6.62-1.81-1.12-1.57,3-1.66,3.76a37.06,37.06,0,0,1-.85,4.27c-.1.4-.09,1.31-.6,1.49-1,.36-1.43-2.22-1.65-2.82s-.55-2.07-1.33-2.38c-1-.38-1.19.65-1.1,1.41a28.29,28.29,0,0,1,.58,4.49c-.08,1.56-.08,2.91,1.22,4,.55.46,1.28.59,1.66,1.22.68,1.14.67,3,.69,4.3s-.11,2.57,0,3.84a17.76,17.76,0,0,0,6.56-.66C219.86,131.54,219.8,131.63,220.11,131.18Z" transform="translate(-30.07 -29.27)"/><path class="cls-28" d="M217.82,122.59a7.67,7.67,0,0,0-4.57-4.57" transform="translate(-30.07 -29.27)"/><line class="cls-29" x1="194.29" y1="88.86" x2="185.24" y2="86.22"/><path class="cls-30" d="M155.32,239.63v10a19.56,19.56,0,0,0,13.25,3.75,90.35,90.35,0,0,0,11-1.54l-1.76-12.21Z" transform="translate(-30.07 -29.27)"/><path class="cls-30" d="M210.32,133.3l1.12-9.27a23.49,23.49,0,0,1,11.75,2.85l-3,9.12Z" transform="translate(-30.07 -29.27)"/><path class="cls-31" d="M142,160.42s6,3.37,6,15.12-1.75,63.11,8.5,67.56,25.5,4.69,25-4.56S174.24,221,174,213a150.54,150.54,0,0,0-1.72-16.91s29.46,0,43.21-.9a9.61,9.61,0,0,0,7.35-4.1c1.93-2.82,4-7,3.41-11.84-.88-7.62-5-28.89-3-40.53a5.53,5.53,0,0,0-3.76-6.12l-7.08-2.33a5.57,5.57,0,0,0-7.05,3.64l-8.82,28.59s-10.76.21-19.75-2.12c-11.75-3-24-.34-24-.34s5-2,5-4.77S142,151.79,142,151.79Z" transform="translate(-30.07 -29.27)"/><path class="cls-32" d="M149.94,165.15s-.7-3,2.79-5.07" transform="translate(-30.07 -29.27)"/><path class="cls-32" d="M196.49,162.54s8.83,1,11.5,9.5" transform="translate(-30.07 -29.27)"/><path class="cls-33" d="M167.45,213s9,7.68,11.32,15" transform="translate(-30.07 -29.27)"/><path class="cls-34" d="M147.57,139.29s2.25-3,4-2,.25,6.38-2.63,6.5Z" transform="translate(-30.07 -29.27)"/><path class="cls-35" d="M128.44,143.75l-2.12,14.88s2.25,8.87,13.12,10.62c0,0,3.63.38,3.88-7.5,0,0-1.5-12.75-1-16.25Z" transform="translate(-30.07 -29.27)"/><path class="cls-36" d="M143.2,160.67c-.27-2.42-.89-8.37-1-12.3l-13.68-1.23C128.55,157.63,139.19,160.67,143.2,160.67Z" transform="translate(-30.07 -29.27)"/><path class="cls-37" d="M149.65,142c-.83-6.66,3-17.33-9.66-19.16,0,0-10.5-1.84-12.17,6.33a42.11,42.11,0,0,0-.79,8.08,3.15,3.15,0,0,0-3.84-.29c-2.87,1.84.61,8.12,4.6,7.54,1.15,5,3.82,9.47,9.2,10.84C148.15,158.21,150.49,148.71,149.65,142Z" transform="translate(-30.07 -29.27)"/><path class="cls-5" d="M146.32,121.13c-1.31-1-3-1.21-4.58-1.67a8.26,8.26,0,0,0-3.55-.46c-1,.17-2.06.55-3.1.62a8.92,8.92,0,0,1,1.62.49c-2.32.19-4.3.24-6.21,1.87-.9.77-1.7,2.25-2.84,2.66a18.4,18.4,0,0,1,1.58,1.32s0,0,0,0a7.68,7.68,0,0,0-1.47,3.29,42.11,42.11,0,0,0-.79,8.08,4.9,4.9,0,0,1,1.85,2,11,11,0,0,0,1.63,2.48c0-2.32-.46-4.47.5-6.73a10.65,10.65,0,0,0,1.25-3.75c0-1.42-.28-2.81-.14-4.24a6.2,6.2,0,0,1,.36-1.62c.39,0,.76.11,1.07.17a16.59,16.59,0,0,1,4.14,1.76,16.24,16.24,0,0,0,7.21,1.75c1.34,0,3.19-.18,3.6-1.65A6.66,6.66,0,0,0,146.32,121.13Z" transform="translate(-30.07 -29.27)"/><path class="cls-38" d="M72.46,88.26c.37-2.12.94-5,.53-7.12a6.65,6.65,0,0,0-1.14-2.23A8.3,8.3,0,0,1,70.91,75c-.07-1.4,0-2.79-.17-4.17a7.49,7.49,0,0,1-.15-2.29c.34-1,1.21-.63,1.61.18.57,1.17,0,2.87.69,3.93.18.3.62.74,1,.52s0-1.35,0-1.76c-.09-.6-1-6.39,1.3-5.07.89.51.64,3,.67,3.93s-.25,3.17.74,3.58c1.71.71.3-7,2.67-7.11,1.65-.06,1,2.8,1,3.74,0,.57-.59,3.25.1,3.52,1,.4,1.33-5.58,3-6,2.07-.47.51,3.39.35,4.1a38.47,38.47,0,0,0-.56,4.31c0,.41-.34,1.27.08,1.61.84.67,2.07-1.64,2.47-2.14s1.19-1.78,2-1.82c1,0,.91,1,.59,1.69a27.81,27.81,0,0,0-2,4.06c-.43,1.5-.86,2.78-2.45,3.41-.67.26-1.4.15-2,.62-1,.86-1.61,2.66-2,3.85s-.74,2.47-1.23,3.64a18,18,0,0,1-6-2.74C72.59,88.69,72.61,88.79,72.46,88.26Z" transform="translate(-30.07 -29.27)"/><path class="cls-39" d="M77.4,80.88A7.67,7.67,0,0,1,83.2,78" transform="translate(-30.07 -29.27)"/><line class="cls-40" x1="42.58" y1="45.27" x2="52" y2="45.69"/><path class="cls-30" d="M69.32,93.13V83s3.75-2.5,14,2.25L81,97.13Z" transform="translate(-30.07 -29.27)"/><path class="cls-30" d="M91.65,233.88l-3.66,8a19.76,19.76,0,0,0,13.16,6.33,170.86,170.86,0,0,1,20,2.17l3.5-11.5Z" transform="translate(-30.07 -29.27)"/><path class="cls-31" d="M129.8,159.57c3.39-5.44-.47-11.53-5.65-12.43a30.17,30.17,0,0,1-10-3.39l.9,5.89a48.1,48.1,0,0,0-6-1.26c-13.5-2-27.25-15.08-27.25-15.08s2.25-15.67,1.5-25.67a65.56,65.56,0,0,1-.09-10A5.52,5.52,0,0,0,79.72,92l-7.37-2.86a5.51,5.51,0,0,0-7.44,4.18,43.58,43.58,0,0,1-2.84,10.28c-2.44,5.1-15.74,29-15.52,48.76a11.81,11.81,0,0,0,6.13,10.26,192,192,0,0,0,20.89,10,87.33,87.33,0,0,1,28,18s-1.5,22.75-11.23,35.25c-7.29,9.36,5.81,14.42,11,15.5,7.5,1.55,24,6.25,27.23-5C131.68,225.6,138.64,183.43,129.8,159.57Z" transform="translate(-30.07 -29.27)"/><path class="cls-32" d="M115.05,149.64s7.77,3.4,10.44,9.74" transform="translate(-30.07 -29.27)"/><line class="cls-32" x1="51.75" y1="104.03" x2="50.08" y2="119.44"/><path class="cls-33" d="M98.36,225.21s5.16-12.67,12-17.5" transform="translate(-30.07 -29.27)"/><path class="cls-41" d="M201.17,198.05s2-7.29,1.9-8.21c-.21-1.62-2.89-3.56-4-4.84s-2-3.07-3.29-4.38c-.53-.57-4.34-3.72-2.79-4.46,1.4-.67,3.88,3.14,5.37,3.49-1.25-1.35-3.82-4.6-3.6-6.88a.7.7,0,0,1,1.22-.39,24.76,24.76,0,0,1,2.71,3.49c-.55-.88-3.39-5.69-1.53-6.17,1.29-.33,3.94,6.81,6.05,7.18.25-2-1.57-6.65-.33-7.46,1.87-1.22,2.08,3.11,2.3,4.05.5,2.17,1.58,5,3.4,6.36-.38-3,2-6.86,3-4.78.25.52-.48,2.28-.43,3,.1,1.61.76,3.11.84,4.72.13,2.9-1.35,4.46-2.3,6.93-1.11,2.9-1.34,9.14-1.34,9.14Z" transform="translate(-30.07 -29.27)"/><path class="cls-12" d="M206.79,186.22c-1.25-1.59.85-5,1.33-6.34" transform="translate(-30.07 -29.27)"/><path class="cls-12" d="M199.62,182.05a10.71,10.71,0,0,1,2.7-2.88c.93-.83,2.75-2.56,3.72-2.7" transform="translate(-30.07 -29.27)"/><path class="cls-42" d="M310.91,163c0-.36-.37-.73-.54-1a7,7,0,0,1-.74-2.65,12.93,12.93,0,0,1,0-3.23c0-.21.11-1.21.37-1.35.71-.37.9,2.9.92,3.3a5.21,5.21,0,0,1,0-2.45c.16-.77.48-.61.63,0,.33,1.37.49,2.82.76,4.22a5,5,0,0,1-.1-1.72c0-.44-.06-1.31.38-1.62s.66.77.73,1.14a11.27,11.27,0,0,0,1.68,4.25,7.76,7.76,0,0,1,1.35,2,14.71,14.71,0,0,1,.39,2.39c-.53-.12-1.14-.45-1.69-.63a10.73,10.73,0,0,1-2.77-1.17,4.41,4.41,0,0,1-1.06-.91C311.19,163.4,311,163.1,310.91,163Z" transform="translate(-30.07 -29.27)"/><path class="cls-43" d="M319,175.28c-.46-2.12-3.14-5.61-5.06-7.17-3.44-2.77-6.14-3.6-6.63-8.46-.09-.92,0-1.94-.13-2.87a9.82,9.82,0,0,1-.48-2.48c1.9-.49,2.42,4,3.18,5.15a15,15,0,0,0,4.61,4.38c.06.06.06.06,0,0-1-1.1-2.64-4.18-1-5.38.94,1.47.84,2.09,2.67,2.91,1.12.51,2.71.63,4.46,2.34,1.28,1.25,1.28,4,2.17,5.59,1,1.77,2.24,4.21,3.16,6Z" transform="translate(-30.07 -29.27)"/><path class="cls-44" d="M190.7,424.8l-7.33,27s-9.84,2.66-18.22,5.49a2.82,2.82,0,0,0,.9,5.5h29.14a3,3,0,0,0,2.87-2.06l12-35.93Z" transform="translate(-30.07 -29.27)"/><polygon class="cls-45" points="158.87 402.04 177.26 403.64 179.97 395.52 160.64 395.52 158.87 402.04"/><path class="cls-5" d="M177.27,453.52c-3.49,1-8,2.37-12.12,3.77a2.82,2.82,0,0,0,.9,5.5h29.14a3,3,0,0,0,2.87-2.06l1.67-5C184.61,460.47,178.87,455.53,177.27,453.52Z" transform="translate(-30.07 -29.27)"/><path class="cls-44" d="M270.87,424.8l-5.67,27s9.84,2.66,18.23,5.49a2.82,2.82,0,0,1-.9,5.5H253.38a3,3,0,0,1-2.86-2.06l1-35.93Z" transform="translate(-30.07 -29.27)"/><polygon class="cls-45" points="221.3 401.49 239.64 401.05 240.8 395.52 221.47 395.52 221.3 401.49"/><path class="cls-5" d="M271.31,453.52c3.49,1,8,2.37,12.12,3.77a2.82,2.82,0,0,1-.9,5.5H253.38a3,3,0,0,1-2.86-2.06l.16-5.79C265.8,459.71,269.7,455.53,271.31,453.52Z" transform="translate(-30.07 -29.27)"/><path class="cls-46" d="M220.88,288.38l74.83.08s-1.93-18.26-2.89-29-1.39-18.94-1.39-18.94l-59.38.82S236.39,264.47,220.88,288.38Z" transform="translate(-30.07 -29.27)"/><path class="cls-26" d="M282.27,262.38l-13.43-1.14-30.41-2.61s-8.26,8.24-17.59,36.5S194.88,390,185,429.63h30.93l40.33-107.26-13.6,104.76h31.75s8.06-83,14.81-114C294.83,287.16,282.27,262.38,282.27,262.38Z" transform="translate(-30.07 -29.27)"/><path class="cls-47" d="M256.22,322.37s17.43-27.9,15.79-57.23" transform="translate(-30.07 -29.27)"/><path class="cls-47" d="M271.61,277.94s6-1.95,5.19-13.47" transform="translate(-30.07 -29.27)"/><line class="cls-47" x1="157.6" y1="389.54" x2="189.44" y2="390.73"/><line class="cls-47" x1="213.79" y1="388.3" x2="244.79" y2="387.55"/><path class="cls-7" d="M238.43,258.63s30.94,11.67,43.84,3.75c0,0,10.35-33.4,7.66-40.5-3.3-8.69-6.6-19.33-17-20.75,0,0-22.22-4-27.72,1.5s-9.25,14.5-4.75,30.75S238.43,258.63,238.43,258.63Z" transform="translate(-30.07 -29.27)"/><path class="cls-31" d="M270.93,200.82s16,21.06,15,45.31-5.25,56-5.25,56,10.5-2,15.25-11.25c0,0-6-54.16-4.5-62.16,0,0,48.75,8.58,55,2.16s6.25-19-.75-29.5-18-31.48-18-31.48l-11.5,1.58,8.89,34.65s-21.14-1-30.64-3S282.27,198.26,270.93,200.82Z" transform="translate(-30.07 -29.27)"/><path class="cls-25" d="M326.62,213.32l-1.55-7.19s7.3,3.25,9.8,8.25" transform="translate(-30.07 -29.27)"/><line class="cls-25" x1="261.36" y1="199.44" x2="262.55" y2="187.11"/><path class="cls-48" d="M259.76,185.06l-2.65,17.75s5.36,9.06,9.76,9.32c2,.12,3.62-4.5,4.51-7.69l.63-17.15Z" transform="translate(-30.07 -29.27)"/><path class="cls-45" d="M260.16,189.53s-2.15,13.16,11.22,14.91l.38-13.25Z" transform="translate(-30.07 -29.27)"/><path class="cls-49" d="M272.91,168.84c-5.09-.85-10.27,4.33-12.18,11.84a2.3,2.3,0,0,0-3.19-1.71c-1.8.53-2.34,6.91,2.43,7.6,0,6.92,3.07,12.56,7.75,13.34,5.54.93,11.19-5.28,12.63-13.86S278.45,169.77,272.91,168.84Z" transform="translate(-30.07 -29.27)"/><path class="cls-5" d="M258.72,179.29a7.72,7.72,0,0,0,.58,2.27,11.45,11.45,0,0,0,1.54,2.17l2.88-8a5.53,5.53,0,0,1,3.32-2.84,17.5,17.5,0,0,1,5.58-.83,6.33,6.33,0,0,1,3.55,1.27,13.38,13.38,0,0,1,4.17,5,27.2,27.2,0,0,1-.23,9,3.51,3.51,0,0,0,2-2.91c.29-2.28.27-7.19-.41-9.44-.55-1.79-1.5-6.29-9.55-7.29a13.32,13.32,0,0,0-6.17.66A8.23,8.23,0,0,0,261,173.2Z" transform="translate(-30.07 -29.27)"/><path class="cls-31" d="M257.53,200s-12-.77-19,4.43-30.71,20.08-30.71,20.08l3.12-31.39H199.54s-21.36,34-19.36,66.5c0,0,5,4.75,12,0s39.72-21.75,39.72-21.75.72,12.75,0,18.75-11,31.75-11,31.75a47.44,47.44,0,0,0,30.05,18.25s1.86-44.21,7.79-58.66C265.9,230.47,257.53,200,257.53,200Z" transform="translate(-30.07 -29.27)"/><path class="cls-25" d="M257.11,228.67l-.42,4.43s-4.86-.08-6.93,1.73a14.82,14.82,0,0,1-2.31,1.67,2.62,2.62,0,0,1-3-.22h0a24.47,24.47,0,0,0-5.84-3.57L237,232l.44-4.6Z" transform="translate(-30.07 -29.27)"/><path class="cls-46" d="M245,232.15a1,1,0,0,1,1.08-.9,1,1,0,1,1-.18,2A1,1,0,0,1,245,232.15Z" transform="translate(-30.07 -29.27)"/><path class="cls-25" d="M237.28,232.13l-.6,10.63a5.23,5.23,0,0,0,3.27,5.15l3.86,1.54a6,6,0,0,0,4.21.09l3.5-1.23A5.23,5.23,0,0,0,255,244l1.25-10.86" transform="translate(-30.07 -29.27)"/><path class="cls-25" d="M207.81,224.52s.06,5.36-4.19,13.11" transform="translate(-30.07 -29.27)"/></g><g class="cls-50"><path class="cls-4" d="M431.69,409.8l8.21,28.73s6,7.44,8.69,14.43h-46.5l8-11.88-6.27-31.28Z" transform="translate(-30.07 -29.27)"/><path class="cls-5" d="M410.11,441.08l-8,11.88h46.5c-2.73-7-8.69-14.43-8.69-14.43C417.3,432.24,410.11,441.08,410.11,441.08Z" transform="translate(-30.07 -29.27)"/><path class="cls-4" d="M402.09,453s7-12.4,24.65-10.21S448.59,453,448.59,453Z" transform="translate(-30.07 -29.27)"/><line class="cls-6" x1="382.36" y1="395.1" x2="384.24" y2="409"/><line class="cls-6" x1="391.61" y1="395.1" x2="393.6" y2="407.03"/><line class="cls-6" x1="400.86" y1="395.1" x2="402.73" y2="407.67"/><path class="cls-4" d="M332.26,405.38l2,31.51s-18.33,8.15-21.33,15.82h49.88V405.38Z" transform="translate(-30.07 -29.27)"/><path class="cls-5" d="M362.81,441.65c-5.38,4.36-11.51,2.27-15.55,1.22-2.68-.69-8.62-4.31-13.12-5.93-1.49.68-18.35,8.45-21.21,15.77h49.88Z" transform="translate(-30.07 -29.27)"/><path class="cls-4" d="M330.93,449.69c-.47-3.25-5-5.78-7.55-6.94-4.55,2.88-9.09,6.47-10.45,10h49.88v-3Z" transform="translate(-30.07 -29.27)"/><line class="cls-6" x1="307.8" y1="395.1" x2="307.8" y2="409.6"/><line class="cls-6" x1="317.61" y1="395.1" x2="317.61" y2="413.71"/><line class="cls-6" x1="327.28" y1="395.1" x2="326.28" y2="414.98"/><path class="cls-7" d="M331.43,247s-9.89,89.34-6.86,117.34,4.1,60,4.1,60h41.26s3-34.34-2-60.8l2-40.87,30,101.67h40.33s4.17-35-13.33-65c-7.52-12.9-4.67-68.84-25.34-112.34Z" transform="translate(-30.07 -29.27)"/><path class="cls-8" d="M337.87,354.38c0-10.31-5.59-18.67-12.47-18.67a10,10,0,0,0-1.1.08c-.44,11.67-.46,21.89.27,28.59.31,2.86.59,5.76.86,8.66C332.3,373,337.87,364.67,337.87,354.38Z" transform="translate(-30.07 -29.27)"/><path class="cls-9" d="M369.93,322.71s-23-20.11-14.52-75.67" transform="translate(-30.07 -29.27)"/><ellipse class="cls-8" cx="398.17" cy="355.1" rx="10.92" ry="18" transform="translate(-89.43 51.42) rotate(-10.77)"/><path class="cls-9" d="M347.66,247s-8.46,40.91,7.89,45.11" transform="translate(-30.07 -29.27)"/><polyline class="cls-9" points="358.34 217.77 368.53 257.46 385.51 262.88"/><path class="cls-9" d="M432.8,424.38s-4.22-41.86-12.89-64.53-11.38-70-11.38-70" transform="translate(-30.07 -29.27)"/><path class="cls-9" d="M361.73,424.38,356.61,365a32.11,32.11,0,0,1,.06-6.2l5.06-47.95" transform="translate(-30.07 -29.27)"/><path class="cls-10" d="M335,92.29c-1.35-.13-2.52.67-3.74.49,1.34-2,3.05-4.22,3.56-6.7a16.9,16.9,0,0,0,0-6.38c-.11-.6-.8-2.8-1.79-2.35-.82.38-.82,3.74-.81,4.51a20.74,20.74,0,0,0-.87-4.57c-.34-.8-.87-2.09-1.72-2.48-1.66-.75-.92,3.16-.65,4-.2-.72-1.45-3.94-2.47-2.06-.89,1.62.52,4.16.07,5.84-.38-1.12-1.53-4.79-3.23-4.59-1.24.15-.41,2.37-.2,3.19s.72,2.39-.09,3.21c-.41.42-.93.65-1.34,1.11a14.41,14.41,0,0,0-1.25,1.66,8.9,8.9,0,0,0-1.67,4.66v0a53.55,53.55,0,0,0-30,31.62c-8.45,24.25-6.95,31.27,3.8,38.76,4.84,3.38,14,10.86,22.59,18.06,2.82-10.17,6.75-24.37,9-32.62L312.43,141s7.31-33,13.35-42.22c1.19-.46,2.42-.55,3.74-1,1.84-.63,3-2.54,4.93-2.89.67-.13,3.65.36,3.82-.65C338.47,93,335.79,92.36,335,92.29Z" transform="translate(-30.07 -29.27)"/><path class="cls-11" d="M312.43,141s-15,7-24.93,16.93a29.9,29.9,0,0,0,5.18,4.4c4.84,3.38,14,10.86,22.59,18.06,2.82-10.17,6.75-24.37,9-32.62L312.43,141Z" transform="translate(-30.07 -29.27)"/><path class="cls-12" d="M321.09,94s1.69-5.86,10.18-1.26" transform="translate(-30.07 -29.27)"/><path class="cls-12" d="M323.1,84.44a11.17,11.17,0,0,1,7.49,1.94" transform="translate(-30.07 -29.27)"/><path class="cls-13" d="M413.18,272.79s-1.93-5.37-4.41-12.48l-3.13,13.43C411.42,270.51,413.18,272.79,413.18,272.79Z" transform="translate(-30.07 -29.27)"/><path class="cls-13" d="M406.4,253.46c-4.07-11.83-8.47-25.08-8.47-27.12a81.55,81.55,0,0,1,.8-9.32l9.45,23.27,31.37-10.79c-2.76-7.09-7.67-19.36-13.37-31.06-7.75-15.9-19.25-29.73-40.75-32.67L378.77,164l.78-4.63-25-2-.68,5L312.43,141c-14.06,15.56-11.56,22.81-18.93,31.56,10.49,8.79,35.43,22,35.43,22s-1.75,28.13-1.75,48.21a54.78,54.78,0,0,1-5.19,22s15.56,11.75,30.25,14.25l9.65-12.25,3.54,17.5s20,6.75,32.25-4.5c1.46-1.34,2.79-2.46,4-3.39a34.69,34.69,0,0,1,3.95-2.66c5.78-3.23,7.54-.95,7.54-.95s-1.93-5.37-4.41-12.48Z" transform="translate(-30.07 -29.27)"/><path class="cls-14" d="M354.51,157.33s5.12,4.93,11.39,5.91c0,0,1.52.8,13.65-3.91Z" transform="translate(-30.07 -29.27)"/><path class="cls-15" d="M361.89,266.79s-7.7-47.72,0-82.06c0,0,3.35-13.66,3.69-21.51" transform="translate(-30.07 -29.27)"/><path class="cls-15" d="M328.93,194.54s1.75-16.52,8.25-27" transform="translate(-30.07 -29.27)"/><line class="cls-15" x1="368.66" y1="187.75" x2="371.61" y2="162.52"/><line class="cls-15" x1="273.13" y1="150.24" x2="290.26" y2="116.22"/><line class="cls-15" x1="374.29" y1="201.6" x2="404.46" y2="187.75"/><rect class="cls-15" x="370.74" y="193.02" width="21.31" height="5.5" transform="translate(-14.98 -56.23) rotate(4.13)"/><polyline class="cls-15" points="323.76 133.03 328.4 140.08 335.48 134.58 340.68 141.58 348.7 134.69"/><path class="cls-16" d="M440.13,232.3l-1.31-2.55-26.33,9.08.94,1.52L404.18,280l0,0c-1.11,2.13-3.59,2.75-5.78,3.21a5.21,5.21,0,0,0-3.05,1.46c-1.36,1.43-1.23,3.43-2.28,5-.52.78-2.18,2.92.17,2.32,1.17-.3,2.39-1.84,3.16-2.71,1.6-1.79,3.16-2.12,5.44-1.68s4.46,1.07,6.66,1.63c1.49.39,2.87,1.19,4.37,1.49a29.78,29.78,0,0,0,1.83-5.52c1-.66,20.72-13.7,26.64-44.08A13.7,13.7,0,0,0,440.13,232.3Z" transform="translate(-30.07 -29.27)"/><path class="cls-17" d="M440.13,232.3l-1.31-2.55-26.33,9.08.89,1.44,27.72-5.47A13.34,13.34,0,0,0,440.13,232.3Z" transform="translate(-30.07 -29.27)"/><path class="cls-18" d="M360.89,146.31l-1.77,14.39a16.89,16.89,0,0,0,6.46,2.52c2.05.3,2.69.12,6.45-1.21V147.36Z" transform="translate(-30.07 -29.27)"/><path class="cls-19" d="M360.89,146.31l-.77,6.27C362.48,157.78,372,158,372,158V147.36Z" transform="translate(-30.07 -29.27)"/><path class="cls-20" d="M360.75,136.6s-4.05-8-6.4-3.5c-2,3.71,1.95,7.76,6,6.93Z" transform="translate(-30.07 -29.27)"/><path class="cls-20" d="M372.39,137.27s5.59-7,7-2.11c1.15,4-3.49,7.2-7.34,5.55Z" transform="translate(-30.07 -29.27)"/><path class="cls-5" d="M357.78,138.29c-1.46-1.08-2-3.38-2.22-5.08a19.6,19.6,0,0,1-.25-2.5c0-.68.56-1.62.62-2.24-2.12-.27-1.44-3.41-.69-4.6a9.47,9.47,0,0,1,6.26-4.43,13.4,13.4,0,0,1,4.5.27,1.68,1.68,0,0,1-.81-1.56c.4,1.35,3.91,1.22,5,1.43a6,6,0,0,1,4.51,3.51c1.25-.93,4,.35,4.47,1.52.83,1.94.14,4.13-.28,6.1-.5,2.29-.13,5.54-1.49,7.5-1.56,2.26-6.43,1.19-8.61.92a47.82,47.82,0,0,0-7.9-.84C360.1,138.32,358.7,138.18,357.78,138.29Z" transform="translate(-30.07 -29.27)"/><path class="cls-21" d="M376.54,131.56a1.72,1.72,0,0,0-2-1.78c-.93.13-1.9.34-2.61.47-.47.09-1.2.64-1.57.67-.75.05-1.79-.73-2.53-.86a3.54,3.54,0,0,1,.42.85c-2.81-.65-5.83-1.36-8.69-2a1.74,1.74,0,0,0-2.11,1.56c-.15,2.13-.28,5.11-.26,5.48.82,12.54,1.22,14.12,8.7,15.32s9.5-7.47,9.89-11.27c.09-.83.12-1.89.4-3.4a6.64,6.64,0,0,0,.1-1C376.34,134.66,376.49,132.93,376.54,131.56Z" transform="translate(-30.07 -29.27)"/><path class="cls-5" d="M357.19,137.46c.27.28.09,1.85,0,2.41a15.93,15.93,0,0,1-1,3.09c-.87,2.38-1,4.95.59,7.12,2.33,3.25,7.7,3.92,11.33,3.19,1.76-.35,3.88-.87,5.18-2.16a9.39,9.39,0,0,0,2.23-4.5,17.51,17.51,0,0,0,.43-7.87c-.7,1.44-1,4.84-3,5.22s-2.13-1.5-3.27-2.32c-1.3-.94-3.62-1-5.14-1a5.22,5.22,0,0,0-3.25,1c-.6.45-1.09,1.07-1.88.72C357.89,141.66,358,138.9,357.19,137.46Z" transform="translate(-30.07 -29.27)"/><path class="cls-22" d="M363.52,145.26a3.56,3.56,0,0,0,2.69.45,6,6,0,0,0,2.15-1.26c-.16,1.36-.52,2.65-2.08,3a3.34,3.34,0,0,1-2.82-.66A2.87,2.87,0,0,0,363.52,145.26Z" transform="translate(-30.07 -29.27)"/><path class="cls-23" d="M55.07,430.38l-5.25,14.75s-20,6.25-19.75,13.5,40.5-1.25,40.5-1.25l8.5-27Z" transform="translate(-30.07 -29.27)"/><path class="cls-24" d="M59.49,448.38c3.77,3.58,8.54-1.27,14.31-1.25l5.27-16.75h-24l-5.25,14.75S54.57,443.71,59.49,448.38Z" transform="translate(-30.07 -29.27)"/><path class="cls-25" d="M38.15,449.7s6.34-.41,10.17,4.68" transform="translate(-30.07 -29.27)"/><path class="cls-25" d="M41.88,448.2s4.92-2.87,9.11,4.51" transform="translate(-30.07 -29.27)"/><path class="cls-25" d="M46.43,446.32s5.72-3.19,7.31,5.06" transform="translate(-30.07 -29.27)"/><path class="cls-23" d="M179.25,429.3l1.34,15.6S198.35,456,196.27,463s-38.86-11.48-38.86-11.48L156,423.21Z" transform="translate(-30.07 -29.27)"/><path class="cls-24" d="M170.41,445.59c-4.56,2.51-7.94-3.39-13.52-4.84L156,423.21l23.21,6.09,1.34,15.6S176.35,442.33,170.41,445.59Z" transform="translate(-30.07 -29.27)"/><path class="cls-25" d="M190.71,452.28s-6-2-11,2" transform="translate(-30.07 -29.27)"/><path class="cls-25" d="M187.49,449.88s-4-4-10,2.06" transform="translate(-30.07 -29.27)"/><path class="cls-25" d="M183.56,446.91s-4.72-4.54-8.35,3" transform="translate(-30.07 -29.27)"/><path class="cls-7" d="M100.82,229.38s-6.5,26.5-23.5,69-27,138-27,138H88l47.83-115,16.91,112.5,31.43-2.5s18.08-90.5,5.16-138.5c-9.15-34-17-59-17-59Z" transform="translate(-30.07 -29.27)"/><path class="cls-25" d="M135.82,321.38s10.63-37.22,9.46-74.44" transform="translate(-30.07 -29.27)"/><line class="cls-25" x1="21.6" y1="395.4" x2="62.79" y2="395.4"/><line class="cls-25" x1="120.66" y1="391.27" x2="155.58" y2="393.94"/><path class="cls-25" d="M90.83,262s17.63-1.08,23.88-21.85" transform="translate(-30.07 -29.27)"/><path class="cls-25" d="M164.43,244s2,17,16.69,19.44" transform="translate(-30.07 -29.27)"/><path class="cls-25" d="M143.85,278.53s7.43-1.15,8.27-5.82.69-26.27.69-26.27" transform="translate(-30.07 -29.27)"/><path class="cls-26" d="M99.88,232.93s18.63,11.28,38.28,13.61,36.09-6.39,36.09-6.39l-11.18-73s-16.19-6.27-27.35-8.5-27.9-2.13-27.9-2.13S103.1,218.73,99.88,232.93Z" transform="translate(-30.07 -29.27)"/><path class="cls-27" d="M220.11,131.18c.34-2.13.73-5.05,1.8-6.91a6.67,6.67,0,0,1,1.8-1.75,8.29,8.29,0,0,0,2.16-3.43c.52-1.3.93-2.62,1.51-3.89a7.48,7.48,0,0,0,.87-2.11c0-1.08-.94-1-1.58-.35-.91.92-.94,2.71-1.91,3.5-.28.22-.83.5-1.11.17s.4-1.29.59-1.66c.27-.54,3-5.72.4-5.22-1,.2-1.58,2.65-1.91,3.5s-.78,3.09-1.85,3.15c-1.85.12,2-6.75-.23-7.59-1.55-.58-1.88,2.32-2.12,3.23-.15.56-.49,3.27-1.24,3.3-1.09,0,.54-5.71-.93-6.62-1.81-1.12-1.57,3-1.66,3.76a37.06,37.06,0,0,1-.85,4.27c-.1.4-.09,1.31-.6,1.49-1,.36-1.43-2.22-1.65-2.82s-.55-2.07-1.33-2.38c-1-.38-1.19.65-1.1,1.41a28.29,28.29,0,0,1,.58,4.49c-.08,1.56-.08,2.91,1.22,4,.55.46,1.28.59,1.66,1.22.68,1.14.67,3,.69,4.3s-.11,2.57,0,3.84a17.76,17.76,0,0,0,6.56-.66C219.86,131.54,219.8,131.63,220.11,131.18Z" transform="translate(-30.07 -29.27)"/><path class="cls-28" d="M217.82,122.59a7.67,7.67,0,0,0-4.57-4.57" transform="translate(-30.07 -29.27)"/><line class="cls-29" x1="194.29" y1="88.86" x2="185.24" y2="86.22"/><path class="cls-30" d="M155.32,239.63v10a19.56,19.56,0,0,0,13.25,3.75,90.35,90.35,0,0,0,11-1.54l-1.76-12.21Z" transform="translate(-30.07 -29.27)"/><path class="cls-30" d="M210.32,133.3l1.12-9.27a23.49,23.49,0,0,1,11.75,2.85l-3,9.12Z" transform="translate(-30.07 -29.27)"/><path class="cls-31" d="M142,160.42s6,3.37,6,15.12-1.75,63.11,8.5,67.56,25.5,4.69,25-4.56S174.24,221,174,213a150.54,150.54,0,0,0-1.72-16.91s29.46,0,43.21-.9a9.61,9.61,0,0,0,7.35-4.1c1.93-2.82,4-7,3.41-11.84-.88-7.62-5-28.89-3-40.53a5.53,5.53,0,0,0-3.76-6.12l-7.08-2.33a5.57,5.57,0,0,0-7.05,3.64l-8.82,28.59s-10.76.21-19.75-2.12c-11.75-3-24-.34-24-.34s5-2,5-4.77S142,151.79,142,151.79Z" transform="translate(-30.07 -29.27)"/><path class="cls-32" d="M149.94,165.15s-.7-3,2.79-5.07" transform="translate(-30.07 -29.27)"/><path class="cls-32" d="M196.49,162.54s8.83,1,11.5,9.5" transform="translate(-30.07 -29.27)"/><path class="cls-33" d="M167.45,213s9,7.68,11.32,15" transform="translate(-30.07 -29.27)"/><path class="cls-34" d="M147.57,139.29s2.25-3,4-2,.25,6.38-2.63,6.5Z" transform="translate(-30.07 -29.27)"/><path class="cls-35" d="M128.44,143.75l-2.12,14.88s2.25,8.87,13.12,10.62c0,0,3.63.38,3.88-7.5,0,0-1.5-12.75-1-16.25Z" transform="translate(-30.07 -29.27)"/><path class="cls-36" d="M143.2,160.67c-.27-2.42-.89-8.37-1-12.3l-13.68-1.23C128.55,157.63,139.19,160.67,143.2,160.67Z" transform="translate(-30.07 -29.27)"/><path class="cls-37" d="M149.65,142c-.83-6.66,3-17.33-9.66-19.16,0,0-10.5-1.84-12.17,6.33a42.11,42.11,0,0,0-.79,8.08,3.15,3.15,0,0,0-3.84-.29c-2.87,1.84.61,8.12,4.6,7.54,1.15,5,3.82,9.47,9.2,10.84C148.15,158.21,150.49,148.71,149.65,142Z" transform="translate(-30.07 -29.27)"/><path class="cls-5" d="M146.32,121.13c-1.31-1-3-1.21-4.58-1.67a8.26,8.26,0,0,0-3.55-.46c-1,.17-2.06.55-3.1.62a8.92,8.92,0,0,1,1.62.49c-2.32.19-4.3.24-6.21,1.87-.9.77-1.7,2.25-2.84,2.66a18.4,18.4,0,0,1,1.58,1.32s0,0,0,0a7.68,7.68,0,0,0-1.47,3.29,42.11,42.11,0,0,0-.79,8.08,4.9,4.9,0,0,1,1.85,2,11,11,0,0,0,1.63,2.48c0-2.32-.46-4.47.5-6.73a10.65,10.65,0,0,0,1.25-3.75c0-1.42-.28-2.81-.14-4.24a6.2,6.2,0,0,1,.36-1.62c.39,0,.76.11,1.07.17a16.59,16.59,0,0,1,4.14,1.76,16.24,16.24,0,0,0,7.21,1.75c1.34,0,3.19-.18,3.6-1.65A6.66,6.66,0,0,0,146.32,121.13Z" transform="translate(-30.07 -29.27)"/><path class="cls-38" d="M72.46,88.26c.37-2.12.94-5,.53-7.12a6.65,6.65,0,0,0-1.14-2.23A8.3,8.3,0,0,1,70.91,75c-.07-1.4,0-2.79-.17-4.17a7.49,7.49,0,0,1-.15-2.29c.34-1,1.21-.63,1.61.18.57,1.17,0,2.87.69,3.93.18.3.62.74,1,.52s0-1.35,0-1.76c-.09-.6-1-6.39,1.3-5.07.89.51.64,3,.67,3.93s-.25,3.17.74,3.58c1.71.71.3-7,2.67-7.11,1.65-.06,1,2.8,1,3.74,0,.57-.59,3.25.1,3.52,1,.4,1.33-5.58,3-6,2.07-.47.51,3.39.35,4.1a38.47,38.47,0,0,0-.56,4.31c0,.41-.34,1.27.08,1.61.84.67,2.07-1.64,2.47-2.14s1.19-1.78,2-1.82c1,0,.91,1,.59,1.69a27.81,27.81,0,0,0-2,4.06c-.43,1.5-.86,2.78-2.45,3.41-.67.26-1.4.15-2,.62-1,.86-1.61,2.66-2,3.85s-.74,2.47-1.23,3.64a18,18,0,0,1-6-2.74C72.59,88.69,72.61,88.79,72.46,88.26Z" transform="translate(-30.07 -29.27)"/><path class="cls-39" d="M77.4,80.88A7.67,7.67,0,0,1,83.2,78" transform="translate(-30.07 -29.27)"/><line class="cls-40" x1="42.58" y1="45.27" x2="52" y2="45.69"/><path class="cls-30" d="M69.32,93.13V83s3.75-2.5,14,2.25L81,97.13Z" transform="translate(-30.07 -29.27)"/><path class="cls-30" d="M91.65,233.88l-3.66,8a19.76,19.76,0,0,0,13.16,6.33,170.86,170.86,0,0,1,20,2.17l3.5-11.5Z" transform="translate(-30.07 -29.27)"/><path class="cls-31" d="M129.8,159.57c3.39-5.44-.47-11.53-5.65-12.43a30.17,30.17,0,0,1-10-3.39l.9,5.89a48.1,48.1,0,0,0-6-1.26c-13.5-2-27.25-15.08-27.25-15.08s2.25-15.67,1.5-25.67a65.56,65.56,0,0,1-.09-10A5.52,5.52,0,0,0,79.72,92l-7.37-2.86a5.51,5.51,0,0,0-7.44,4.18,43.58,43.58,0,0,1-2.84,10.28c-2.44,5.1-15.74,29-15.52,48.76a11.81,11.81,0,0,0,6.13,10.26,192,192,0,0,0,20.89,10,87.33,87.33,0,0,1,28,18s-1.5,22.75-11.23,35.25c-7.29,9.36,5.81,14.42,11,15.5,7.5,1.55,24,6.25,27.23-5C131.68,225.6,138.64,183.43,129.8,159.57Z" transform="translate(-30.07 -29.27)"/><path class="cls-32" d="M115.05,149.64s7.77,3.4,10.44,9.74" transform="translate(-30.07 -29.27)"/><line class="cls-32" x1="51.75" y1="104.03" x2="50.08" y2="119.44"/><path class="cls-33" d="M98.36,225.21s5.16-12.67,12-17.5" transform="translate(-30.07 -29.27)"/><path class="cls-41" d="M201.17,198.05s2-7.29,1.9-8.21c-.21-1.62-2.89-3.56-4-4.84s-2-3.07-3.29-4.38c-.53-.57-4.34-3.72-2.79-4.46,1.4-.67,3.88,3.14,5.37,3.49-1.25-1.35-3.82-4.6-3.6-6.88a.7.7,0,0,1,1.22-.39,24.76,24.76,0,0,1,2.71,3.49c-.55-.88-3.39-5.69-1.53-6.17,1.29-.33,3.94,6.81,6.05,7.18.25-2-1.57-6.65-.33-7.46,1.87-1.22,2.08,3.11,2.3,4.05.5,2.17,1.58,5,3.4,6.36-.38-3,2-6.86,3-4.78.25.52-.48,2.28-.43,3,.1,1.61.76,3.11.84,4.72.13,2.9-1.35,4.46-2.3,6.93-1.11,2.9-1.34,9.14-1.34,9.14Z" transform="translate(-30.07 -29.27)"/><path class="cls-12" d="M206.79,186.22c-1.25-1.59.85-5,1.33-6.34" transform="translate(-30.07 -29.27)"/><path class="cls-12" d="M199.62,182.05a10.71,10.71,0,0,1,2.7-2.88c.93-.83,2.75-2.56,3.72-2.7" transform="translate(-30.07 -29.27)"/><path class="cls-42" d="M310.91,163c0-.36-.37-.73-.54-1a7,7,0,0,1-.74-2.65,12.93,12.93,0,0,1,0-3.23c0-.21.11-1.21.37-1.35.71-.37.9,2.9.92,3.3a5.21,5.21,0,0,1,0-2.45c.16-.77.48-.61.63,0,.33,1.37.49,2.82.76,4.22a5,5,0,0,1-.1-1.72c0-.44-.06-1.31.38-1.62s.66.77.73,1.14a11.27,11.27,0,0,0,1.68,4.25,7.76,7.76,0,0,1,1.35,2,14.71,14.71,0,0,1,.39,2.39c-.53-.12-1.14-.45-1.69-.63a10.73,10.73,0,0,1-2.77-1.17,4.41,4.41,0,0,1-1.06-.91C311.19,163.4,311,163.1,310.91,163Z" transform="translate(-30.07 -29.27)"/><path class="cls-43" d="M319,175.28c-.46-2.12-3.14-5.61-5.06-7.17-3.44-2.77-6.14-3.6-6.63-8.46-.09-.92,0-1.94-.13-2.87a9.82,9.82,0,0,1-.48-2.48c1.9-.49,2.42,4,3.18,5.15a15,15,0,0,0,4.61,4.38c.06.06.06.06,0,0-1-1.1-2.64-4.18-1-5.38.94,1.47.84,2.09,2.67,2.91,1.12.51,2.71.63,4.46,2.34,1.28,1.25,1.28,4,2.17,5.59,1,1.77,2.24,4.21,3.16,6Z" transform="translate(-30.07 -29.27)"/><path class="cls-44" d="M190.7,424.8l-7.33,27s-9.84,2.66-18.22,5.49a2.82,2.82,0,0,0,.9,5.5h29.14a3,3,0,0,0,2.87-2.06l12-35.93Z" transform="translate(-30.07 -29.27)"/><polygon class="cls-45" points="158.87 402.04 177.26 403.64 179.97 395.52 160.64 395.52 158.87 402.04"/><path class="cls-5" d="M177.27,453.52c-3.49,1-8,2.37-12.12,3.77a2.82,2.82,0,0,0,.9,5.5h29.14a3,3,0,0,0,2.87-2.06l1.67-5C184.61,460.47,178.87,455.53,177.27,453.52Z" transform="translate(-30.07 -29.27)"/><path class="cls-44" d="M270.87,424.8l-5.67,27s9.84,2.66,18.23,5.49a2.82,2.82,0,0,1-.9,5.5H253.38a3,3,0,0,1-2.86-2.06l1-35.93Z" transform="translate(-30.07 -29.27)"/><polygon class="cls-45" points="221.3 401.49 239.64 401.05 240.8 395.52 221.47 395.52 221.3 401.49"/><path class="cls-5" d="M271.31,453.52c3.49,1,8,2.37,12.12,3.77a2.82,2.82,0,0,1-.9,5.5H253.38a3,3,0,0,1-2.86-2.06l.16-5.79C265.8,459.71,269.7,455.53,271.31,453.52Z" transform="translate(-30.07 -29.27)"/><path class="cls-46" d="M220.88,288.38l74.83.08s-1.93-18.26-2.89-29-1.39-18.94-1.39-18.94l-59.38.82S236.39,264.47,220.88,288.38Z" transform="translate(-30.07 -29.27)"/><path class="cls-26" d="M282.27,262.38l-13.43-1.14-30.41-2.61s-8.26,8.24-17.59,36.5S194.88,390,185,429.63h30.93l40.33-107.26-13.6,104.76h31.75s8.06-83,14.81-114C294.83,287.16,282.27,262.38,282.27,262.38Z" transform="translate(-30.07 -29.27)"/><path class="cls-47" d="M256.22,322.37s17.43-27.9,15.79-57.23" transform="translate(-30.07 -29.27)"/><path class="cls-47" d="M271.61,277.94s6-1.95,5.19-13.47" transform="translate(-30.07 -29.27)"/><line class="cls-47" x1="157.6" y1="389.54" x2="189.44" y2="390.73"/><line class="cls-47" x1="213.79" y1="388.3" x2="244.79" y2="387.55"/><path class="cls-7" d="M238.43,258.63s30.94,11.67,43.84,3.75c0,0,10.35-33.4,7.66-40.5-3.3-8.69-6.6-19.33-17-20.75,0,0-22.22-4-27.72,1.5s-9.25,14.5-4.75,30.75S238.43,258.63,238.43,258.63Z" transform="translate(-30.07 -29.27)"/><path class="cls-31" d="M270.93,200.82s16,21.06,15,45.31-5.25,56-5.25,56,10.5-2,15.25-11.25c0,0-6-54.16-4.5-62.16,0,0,48.75,8.58,55,2.16s6.25-19-.75-29.5-18-31.48-18-31.48l-11.5,1.58,8.89,34.65s-21.14-1-30.64-3S282.27,198.26,270.93,200.82Z" transform="translate(-30.07 -29.27)"/><path class="cls-25" d="M326.62,213.32l-1.55-7.19s7.3,3.25,9.8,8.25" transform="translate(-30.07 -29.27)"/><line class="cls-25" x1="261.36" y1="199.44" x2="262.55" y2="187.11"/><path class="cls-48" d="M259.76,185.06l-2.65,17.75s5.36,9.06,9.76,9.32c2,.12,3.62-4.5,4.51-7.69l.63-17.15Z" transform="translate(-30.07 -29.27)"/><path class="cls-45" d="M260.16,189.53s-2.15,13.16,11.22,14.91l.38-13.25Z" transform="translate(-30.07 -29.27)"/><path class="cls-49" d="M272.91,168.84c-5.09-.85-10.27,4.33-12.18,11.84a2.3,2.3,0,0,0-3.19-1.71c-1.8.53-2.34,6.91,2.43,7.6,0,6.92,3.07,12.56,7.75,13.34,5.54.93,11.19-5.28,12.63-13.86S278.45,169.77,272.91,168.84Z" transform="translate(-30.07 -29.27)"/><path class="cls-5" d="M258.72,179.29a7.72,7.72,0,0,0,.58,2.27,11.45,11.45,0,0,0,1.54,2.17l2.88-8a5.53,5.53,0,0,1,3.32-2.84,17.5,17.5,0,0,1,5.58-.83,6.33,6.33,0,0,1,3.55,1.27,13.38,13.38,0,0,1,4.17,5,27.2,27.2,0,0,1-.23,9,3.51,3.51,0,0,0,2-2.91c.29-2.28.27-7.19-.41-9.44-.55-1.79-1.5-6.29-9.55-7.29a13.32,13.32,0,0,0-6.17.66A8.23,8.23,0,0,0,261,173.2Z" transform="translate(-30.07 -29.27)"/><path class="cls-31" d="M257.53,200s-12-.77-19,4.43-30.71,20.08-30.71,20.08l3.12-31.39H199.54s-21.36,34-19.36,66.5c0,0,5,4.75,12,0s39.72-21.75,39.72-21.75.72,12.75,0,18.75-11,31.75-11,31.75a47.44,47.44,0,0,0,30.05,18.25s1.86-44.21,7.79-58.66C265.9,230.47,257.53,200,257.53,200Z" transform="translate(-30.07 -29.27)"/><path class="cls-25" d="M257.11,228.67l-.42,4.43s-4.86-.08-6.93,1.73a14.82,14.82,0,0,1-2.31,1.67,2.62,2.62,0,0,1-3-.22h0a24.47,24.47,0,0,0-5.84-3.57L237,232l.44-4.6Z" transform="translate(-30.07 -29.27)"/><path class="cls-46" d="M245,232.15a1,1,0,0,1,1.08-.9,1,1,0,1,1-.18,2A1,1,0,0,1,245,232.15Z" transform="translate(-30.07 -29.27)"/><path class="cls-25" d="M237.28,232.13l-.6,10.63a5.23,5.23,0,0,0,3.27,5.15l3.86,1.54a6,6,0,0,0,4.21.09l3.5-1.23A5.23,5.23,0,0,0,255,244l1.25-10.86" transform="translate(-30.07 -29.27)"/><path class="cls-25" d="M207.81,224.52s.06,5.36-4.19,13.11" transform="translate(-30.07 -29.27)"/></g></g></g></svg>