<?xml version="1.0" encoding="UTF-8"?>
<svg xmlns="http://www.w3.org/2000/svg" xmlns:xlink="http://www.w3.org/1999/xlink" width="810pt" height="809.999993pt" viewBox="0 0 810 809.999993" version="1.2">
<defs>
<clipPath id="clip1">
  <path d="M 381.71875 380.78125 L 428.21875 380.78125 L 428.21875 429.53125 L 381.71875 429.53125 Z M 381.71875 380.78125 "/>
</clipPath>
</defs>
<g id="surface1">
<g clip-path="url(#clip1)" clip-rule="nonzero">
<path style=" stroke:none;fill-rule:nonzero;fill:rgb(0.779724%,99.609375%,80.389404%);fill-opacity:1;" d="M 426.441406 380.929688 L 424.351562 382.371094 C 413.429688 389.894531 402.25 405.472656 396.671875 418.140625 C 395.808594 416.925781 395.546875 416.523438 394.714844 415.171875 C 391.300781 410.53125 386.976562 406.546875 384.925781 405.074219 L 381.71875 406.425781 L 381.820312 406.617188 C 384.035156 409.058594 387.921875 414.476562 393.773438 426.414062 C 394.132812 426.929688 394.515625 427.433594 394.953125 427.90625 C 396.097656 429.140625 397.273438 429.402344 398.054688 429.402344 C 398.058594 429.402344 398.058594 429.402344 398.058594 429.402344 C 400.292969 429.402344 401.609375 427.625 402.515625 425.542969 C 408.378906 403.621094 422.234375 388.527344 428.226562 383.359375 Z M 426.441406 380.929688 "/>
</g>
</g>
</svg>
